<svg id="Camada_1" data-name="Camada 1" xmlns="http://www.w3.org/2000/svg" viewBox="0 0 218.73 259.03"><defs><style>.cls-1{fill:#96d32c;}.cls-1,.cls-2,.cls-3{fill-rule:evenodd;}.cls-2{fill:#78ae18;}.cls-3{fill:#a5de45;}</style></defs><path class="cls-1" d="M4.08,200.71l17.09,9.87h0L80,244.53l21.21,12.25a15.94,15.94,0,0,0,16.33,0l97.12-56.07a8,8,0,0,0,4.09-7.07V65.39H0V193.64H0A8,8,0,0,0,4.08,200.71Z"/><path class="cls-2" d="M152.55,236.56l62.09-35.85a8,8,0,0,0,4.09-7.07V65.39L106,54.71c5.37,36.07,3.33,136.42,3.33,136.42V259a16.21,16.21,0,0,0,8.16-2.25Z"/><path class="cls-3" d="M4.08,72.46l97.11,56.07a15.94,15.94,0,0,0,16.33,0l97.12-56.07a8.16,8.16,0,0,0,0-14.14L117.53,2.25a15.94,15.94,0,0,0-16.33,0L4.08,58.32a8.17,8.17,0,0,0,0,14.14Z"/></svg>