<svg id="Camada_1" data-name="Camada 1" xmlns="http://www.w3.org/2000/svg" viewBox="0 0 19.75 93.09"><defs><style>.cls-1{fill:#f4f4f4;}.cls-2{fill:#80d1cf;}</style></defs><path class="cls-1" d="M1.12,83.26,17.66,92.9a1.39,1.39,0,0,0,2.09-1.2V12A2.25,2.25,0,0,0,18.63,10L1.71.16A1.13,1.13,0,0,0,0,1.14V81.32A2.23,2.23,0,0,0,1.12,83.26Z"/><path class="cls-2" d="M2.91,82.2l13,7.52A1.38,1.38,0,0,0,18,88.52V13a2.25,2.25,0,0,0-1.12-1.95L3.51,3.33a1.15,1.15,0,0,0-1.72,1V80.26A2.25,2.25,0,0,0,2.91,82.2Z"/></svg>