<svg id="Camada_1" data-name="Camada 1" xmlns="http://www.w3.org/2000/svg" viewBox="0 0 24.38 114.94"><defs><style>.cls-1{fill:#f4f4f4;}.cls-2{fill:#80d1cf;}</style></defs><path class="cls-1" d="M1.38,102.8,21.8,114.7a1.71,1.71,0,0,0,2.58-1.48V14.76A2.76,2.76,0,0,0,23,12.37L2.11.19A1.41,1.41,0,0,0,0,1.41v99A2.77,2.77,0,0,0,1.38,102.8Z"/><path class="cls-2" d="M3.6,101.49l16,9.29a1.72,1.72,0,0,0,2.58-1.49V16.07a2.79,2.79,0,0,0-1.38-2.4L4.33,4.12A1.4,1.4,0,0,0,2.22,5.33V99.09A2.75,2.75,0,0,0,3.6,101.49Z"/></svg>