<svg width="47" height="48" viewBox="0 0 47 48" fill="none" xmlns="http://www.w3.org/2000/svg">
<path d="M37.5125 0H9.48745C4.24768 0 0 4.33805 0 9.68931V38.3107C0 43.6619 4.24768 48 9.48745 48H37.5125C42.7523 48 47 43.6619 47 38.3107V9.68931C47 4.33805 42.7523 0 37.5125 0Z" fill="#A3A3A3"/>
<path opacity="0.4" d="M30.3836 30.7122C30.5664 30.7925 30.7698 30.8102 30.9633 30.7627C31.1568 30.7151 31.33 30.6048 31.4569 30.4483L36.0947 25.7119L39.0893 22.6197C39.2033 22.5313 39.2956 22.4172 39.3592 22.2864C39.4228 22.1555 39.4559 22.0114 39.4559 21.8652C39.4559 21.7191 39.4228 21.575 39.3592 21.4441C39.2956 21.3132 39.2033 21.1992 39.0893 21.1108L36.3729 18.3366L31.4569 13.316C31.3312 13.1558 31.1587 13.0406 30.9646 12.987C30.7705 12.9335 30.5647 12.9445 30.377 13.0183C30.1915 13.103 30.0371 13.2455 29.9359 13.4255C29.8347 13.6054 29.792 13.8134 29.8139 14.0197V17.5044H21.9165C21.6769 17.4788 21.4369 17.5481 21.2458 17.6979C21.0548 17.8477 20.9273 18.0666 20.8896 18.3096C20.8687 18.444 20.8768 18.5815 20.9134 18.7124C20.9501 18.8433 21.0143 18.9645 21.1016 19.0674C21.2045 19.1748 21.3286 19.2587 21.4657 19.3135C21.6027 19.3684 21.7496 19.3929 21.8966 19.3854C24.3833 19.3854 26.8678 19.3854 29.3501 19.3854H30.4764C31.2847 19.3854 31.616 19.0471 31.6226 18.2081V16.2391L37.1348 21.8686L31.6623 27.4576V26.9772V26.9027C31.6623 26.8351 31.6623 26.7539 31.6623 26.6727V25.4006C31.6788 25.2579 31.6631 25.1133 31.6163 24.9778C31.5696 24.8423 31.4931 24.7195 31.3926 24.6189C31.2922 24.5183 31.1705 24.4425 31.037 24.3974C30.9034 24.3523 30.7615 24.339 30.6222 24.3586H18.2461V20.8334C18.2618 20.6307 18.2138 20.4281 18.1089 20.2553C18.004 20.0825 17.8478 19.9484 17.663 19.8726C17.549 19.8266 17.4279 19.8014 17.3053 19.7981C17.1729 19.8032 17.0429 19.8359 16.9233 19.8941C16.8037 19.9522 16.6969 20.0347 16.6096 20.1365L12.27 24.5751L8.95737 27.9583C8.84861 28.045 8.76063 28.1558 8.70012 28.2825C8.6396 28.4091 8.60815 28.5481 8.60815 28.689C8.60815 28.8299 8.6396 28.969 8.70012 29.0956C8.76063 29.2222 8.84861 29.3331 8.95737 29.4198L16.6096 37.289C16.7323 37.4452 16.9012 37.5567 17.0911 37.6067C17.281 37.6567 17.4817 37.6426 17.663 37.5664C17.8471 37.4883 18.0021 37.3525 18.1057 37.1786C18.2093 37.0047 18.2561 36.8017 18.2394 36.5988V33.0804H26.1898C26.3729 33.0889 26.5544 33.0418 26.7113 32.9451C26.8682 32.8485 26.9936 32.7064 27.0715 32.5371C27.1495 32.3677 27.1766 32.1785 27.1494 31.9934C27.1221 31.8083 27.0418 31.6356 26.9186 31.497C26.8167 31.3976 26.6959 31.3205 26.5638 31.2704C26.4316 31.2204 26.2908 31.1985 26.1501 31.2061H23.5397C21.6714 31.2061 19.7368 31.2061 17.8353 31.2061C17.6255 31.178 17.4123 31.1934 17.2085 31.2516C17.0047 31.3097 16.8145 31.4093 16.6494 31.5444C16.5324 31.707 16.4497 31.8925 16.4063 32.0893C16.363 32.2861 16.36 32.4899 16.3976 32.6879C16.3976 32.9586 16.3976 33.2292 16.3976 33.4931C16.3976 33.6081 16.3976 33.7299 16.3976 33.8517V34.366L10.892 28.7499L16.4042 23.1204V24.088C16.4042 24.4263 16.4042 24.7646 16.4042 25.1232C16.3892 25.27 16.405 25.4184 16.4507 25.5585C16.4964 25.6985 16.5709 25.8269 16.6692 25.9352C16.7807 26.0442 16.9129 26.1287 17.0576 26.1834C17.2023 26.2381 17.3566 26.2619 17.5107 26.2532V26.2532C20.3794 26.2532 23.2946 26.2532 26.1236 26.2532H29.8139V29.7513C29.7883 29.9598 29.8318 30.171 29.9375 30.3513C30.0432 30.5316 30.2049 30.6705 30.3969 30.746" fill="black"/>
<path d="M29.3369 29.4739C29.5233 29.553 29.7299 29.5673 29.925 29.5147C30.1201 29.4622 30.2929 29.3456 30.4168 29.183L35.0545 24.4466L38.0558 21.3882C38.1698 21.2992 38.2622 21.1845 38.3258 21.053C38.3894 20.9216 38.4225 20.777 38.4225 20.6304C38.4225 20.4838 38.3894 20.3392 38.3258 20.2077C38.2622 20.0763 38.1698 19.9616 38.0558 19.8726L35.3394 17.1052L30.4234 12.0778C30.2981 11.917 30.1253 11.8018 29.9308 11.7494C29.7362 11.6969 29.5302 11.7101 29.3435 11.7869C29.1554 11.8672 28.9978 12.0074 28.8939 12.1866C28.7901 12.3658 28.7456 12.5744 28.7671 12.7815V16.2729H20.8764C20.6915 16.2543 20.5054 16.2921 20.3415 16.3814C20.1775 16.4707 20.0432 16.6075 19.9553 16.7747C19.8675 16.9418 19.83 17.1318 19.8477 17.3207C19.8654 17.5095 19.9375 17.6888 20.0548 17.8359C20.1573 17.9441 20.2813 18.0284 20.4185 18.0833C20.5556 18.1382 20.7028 18.1623 20.8499 18.1539H29.4628C30.2711 18.1539 30.6023 17.8089 30.6023 16.9698C30.6023 16.6451 30.6023 16.2932 30.6023 15.982V14.9941L36.1146 20.6304L30.6487 26.2126V25.7322C30.6517 25.7075 30.6517 25.6825 30.6487 25.6577C30.6487 25.5901 30.6487 25.5089 30.6487 25.4277C30.6487 25.3465 30.6487 25.0961 30.6487 24.927C30.6487 24.7578 30.6487 24.4195 30.6487 24.1624C30.6648 24.0228 30.6497 23.8812 30.6043 23.7485C30.559 23.6157 30.4847 23.4952 30.387 23.3962C30.2893 23.2971 30.1709 23.222 30.0406 23.1765C29.9103 23.1311 29.7716 23.1165 29.635 23.1339H17.2258V19.6222C17.2442 19.42 17.198 19.2171 17.0941 19.0439C16.9902 18.8707 16.8342 18.7365 16.6494 18.6614C16.5333 18.6146 16.4099 18.5894 16.285 18.587C16.1522 18.5933 16.0221 18.6272 15.9025 18.6865C15.7829 18.7458 15.6764 18.8294 15.5894 18.9321L11.2498 23.364L7.93712 26.7471C7.83056 26.8353 7.74463 26.9467 7.68561 27.0731C7.62658 27.1995 7.59595 27.3378 7.59595 27.4779C7.59595 27.6179 7.62658 27.7562 7.68561 27.8827C7.74463 28.0091 7.83056 28.1205 7.93712 28.2086L15.5629 36.0507C15.6849 36.2079 15.8538 36.3201 16.044 36.3701C16.2341 36.4202 16.4351 36.4055 16.6163 36.3282C16.8071 36.2566 16.9699 36.1234 17.0799 35.9488C17.1899 35.7741 17.2412 35.5676 17.2258 35.3606V31.8421H22.9368C23.6723 31.8421 24.4275 31.8421 25.1762 31.8421C25.3593 31.8526 25.5413 31.8071 25.6988 31.7113C25.8564 31.6156 25.9824 31.474 26.0607 31.3046C26.139 31.1353 26.166 30.9459 26.1382 30.7608C26.1105 30.5757 26.0293 30.4033 25.905 30.2656C25.8031 30.1637 25.6816 30.0846 25.5481 30.0334C25.4146 29.9821 25.2722 29.9598 25.1298 29.9679H22.5261C20.6577 29.9679 18.7231 29.9679 16.8217 29.9679C16.6123 29.9372 16.399 29.9508 16.195 30.0078C15.991 30.0649 15.8006 30.1641 15.6357 30.2994C15.5175 30.4626 15.4335 30.6491 15.389 30.847C15.3445 31.0449 15.3406 31.2501 15.3774 31.4497C15.3774 31.7136 15.3774 31.9842 15.3774 32.2481C15.3774 32.3699 15.3774 32.4849 15.3774 32.6067V33.1209L9.87171 27.5049L15.3774 21.8754V22.3964C15.3774 22.5452 15.3774 22.6941 15.3774 22.843C15.3774 23.1813 15.3774 23.5196 15.3774 23.8782C15.3656 24.0248 15.383 24.1723 15.4285 24.3119C15.4741 24.4514 15.5468 24.5801 15.6424 24.6902C15.7537 24.7998 15.8857 24.8851 16.0304 24.9409C16.175 24.9968 16.3293 25.0219 16.4838 25.0149V25.0149C19.3525 25.0149 22.2677 25.0149 25.0967 25.0149H28.787V26.1855C28.787 26.9636 28.787 27.7215 28.787 28.4793C28.7614 28.6878 28.805 28.899 28.9106 29.0792C29.0163 29.2595 29.178 29.3985 29.37 29.4739" fill="white"/>
</svg>
