<svg width="48" height="48" viewBox="0 0 48 48" fill="none" xmlns="http://www.w3.org/2000/svg">
<path d="M37.6498 0.372192H9.62466C4.38489 0.372192 0.137207 4.62552 0.137207 9.87226V37.9346C0.137207 43.1813 4.38489 47.4346 9.62466 47.4346H37.6498C42.8895 47.4346 47.1372 43.1813 47.1372 37.9346V9.87226C47.1372 4.62552 42.8895 0.372192 37.6498 0.372192Z" fill="#1AA7D3"/>
<g opacity="0.5">
<path opacity="0.5" d="M16.1972 18.4567C16.2003 18.4459 16.2003 18.4345 16.1972 18.4237C16.1838 18.5165 16.1905 18.5164 16.1972 18.4567Z" fill="black"/>
<path opacity="0.5" d="M34.4631 10.4428H15.0112C14.8303 10.4295 14.6487 10.4295 14.4679 10.4428H14.4414H14.2095C13.6364 10.4458 13.0728 10.5895 12.568 10.8613C12.0632 11.1331 11.6328 11.5246 11.3143 12.0017C10.9067 12.7009 10.5799 13.4443 10.3403 14.2175C10.0753 14.8809 9.81694 15.604 9.56517 16.3006C9.29187 16.874 9.1129 17.4878 9.03516 18.1183C9.03516 19.9228 9.8832 21.86 11.6853 22.4305V32.7931C11.6853 33.8545 11.5925 34.9559 11.6853 36.0107C11.7233 36.6305 11.9578 37.2219 12.3545 37.6992C12.7513 38.1764 13.2897 38.5145 13.8915 38.6643C14.6686 38.7915 15.4577 38.8292 16.2435 38.7771H34.7944C35.335 38.7827 35.8705 38.6718 36.3646 38.452C37.6433 37.8682 38.0077 36.6143 38.0077 35.3074V22.2514C38.1547 22.1823 38.2964 22.1025 38.4317 22.0126C39.2202 21.449 39.7799 20.6201 40.0085 19.6774C40.1462 19.1781 40.2174 18.6628 40.2205 18.1449C40.2591 18.0037 40.2591 17.8549 40.2205 17.7137C39.8958 16.785 39.558 15.8562 39.2201 14.9341C38.6967 13.5343 38.2727 11.8625 36.9675 10.9536C36.4908 10.6501 35.9471 10.4679 35.384 10.4228C35.2473 10.413 35.11 10.413 34.9732 10.4228L34.4631 10.4428ZM13.5205 36.3357C13.4807 36.2495 13.5205 36.2959 13.5205 36.3357V36.3357ZM17.4559 37.0654V32.6671C17.4559 30.9223 17.5222 29.1575 17.4559 27.4194V27.373C17.4542 27.3532 17.4542 27.3331 17.4559 27.3133L17.5354 27.0148C17.5686 26.9405 17.6085 26.8694 17.6547 26.8024C17.6547 26.8024 17.8733 26.5902 17.7872 26.6631C17.8793 26.5805 17.9954 26.5294 18.1184 26.5172C18.4843 26.4839 18.8524 26.4839 19.2183 26.5172C20.5433 26.5172 21.9346 26.5172 23.2928 26.5172H23.3392C23.4253 26.5172 23.5313 26.5636 23.6174 26.5901C23.699 26.6264 23.7767 26.671 23.8494 26.7229C23.7831 26.6765 23.9355 26.829 23.9487 26.8556C23.9963 26.9434 24.0235 27.0409 24.0282 27.1408C24.0382 27.3264 24.0382 27.5125 24.0282 27.6981V37.092H17.4029L17.4559 37.0654ZM36.2453 36.2959C36.1801 36.4713 36.0705 36.6267 35.9273 36.747L35.7617 36.8597L35.596 36.946H35.543L35.2714 37.0189H35.1786H34.9401C33.8867 37.0189 32.8333 37.0189 31.7798 37.0189H25.7773V27.7843C25.8306 27.1784 25.7375 26.5686 25.5057 26.0064C25.3336 25.6988 25.097 25.4322 24.8123 25.2249C24.5275 25.0176 24.2012 24.8746 23.856 24.8056C23.55 24.7505 23.2391 24.7282 22.9284 24.7392H20.5367C18.9267 24.7392 16.8265 24.4009 16.0182 26.1855C15.7901 26.7467 15.6904 27.3519 15.7267 27.9568V37.092H15.3755C15.069 37.1151 14.7612 37.1151 14.4547 37.092C14.2137 37.0658 13.9846 36.9741 13.7921 36.8267C13.7921 36.8267 13.6994 36.7137 13.6596 36.6872L13.5933 36.5944L13.494 36.4086C13.4735 36.3611 13.4558 36.3123 13.441 36.2627L13.3814 35.9974C13.3781 35.9754 13.3781 35.953 13.3814 35.931C13.3782 35.8691 13.3782 35.8071 13.3814 35.7452C13.3814 35.6722 13.3814 35.5992 13.3814 35.5262C13.3814 34.9623 13.3814 34.3986 13.3814 33.8347V22.6428C14.0947 22.5878 14.7883 22.3819 15.4164 22.0389C16.0445 21.6958 16.5929 21.2234 17.0253 20.6526C17.4101 21.2372 17.922 21.727 18.5226 22.0855C19.5166 22.6315 20.6703 22.8112 21.7829 22.5929C22.8955 22.3747 23.8964 21.7727 24.6112 20.8915C25.1211 21.5438 25.7959 22.0477 26.5657 22.351C27.5526 22.7447 28.6432 22.7939 29.6614 22.4906C30.6796 22.1872 31.566 21.5491 32.1774 20.6792C32.8376 21.5246 33.7422 22.1455 34.7679 22.4571C35.2695 22.6022 35.7895 22.6737 36.3116 22.6694V35.1349C36.3408 35.5291 36.3073 35.9255 36.2122 36.3092L36.2453 36.2959ZM34.8673 12.1543C34.9599 12.1608 35.0529 12.1608 35.1455 12.1543H35.3178L35.4701 12.1875C35.6693 12.223 35.8589 12.2999 36.0267 12.4131C36.4523 12.7319 36.7655 13.1779 36.9211 13.6868C37.4246 14.9274 37.8818 16.1878 38.3257 17.4483C38.4052 17.6672 38.4781 17.8795 38.5509 18.1117V18.2445C38.5575 18.3439 38.5575 18.4436 38.5509 18.543C38.5542 18.5894 38.5542 18.6359 38.5509 18.6823C38.5542 18.7176 38.5542 18.7531 38.5509 18.7884C38.498 19.0934 38.4182 19.3931 38.3124 19.684V19.684C38.2975 19.7207 38.2797 19.7561 38.2594 19.7901C38.227 19.8614 38.1894 19.9302 38.1468 19.9958C38.0887 20.126 38.0054 20.2432 37.9016 20.3408C37.7025 20.5667 37.4426 20.7302 37.153 20.8118C36.7039 20.9336 36.2337 20.9563 35.7749 20.8782C34.9451 20.7686 34.1924 20.3344 33.6813 19.6708L33.5753 19.5248L33.4097 19.2529L33.2904 19.0206L33.2573 18.9409C33.2062 18.8062 33.162 18.669 33.1248 18.5297V18.4303C33.1286 18.2221 33.0558 18.0198 32.9204 17.8618C32.785 17.7038 32.5964 17.601 32.3903 17.5731C32.1842 17.5453 31.9751 17.5942 31.8027 17.7107C31.6303 17.8271 31.5066 18.0029 31.4552 18.2046C31.4026 18.5162 31.3159 18.8209 31.1968 19.1134V19.1865L31.0975 19.3789C31.0128 19.5419 30.9176 19.6992 30.8126 19.8499C30.7396 19.9503 30.6599 20.0456 30.574 20.1351C30.4561 20.257 30.3276 20.368 30.1898 20.4668C29.8205 20.6983 29.4079 20.8519 28.9772 20.9181C28.5466 20.9842 28.107 20.9616 27.6854 20.8517C27.305 20.768 26.9449 20.6102 26.6254 20.3873C26.3865 20.2039 26.1823 19.9792 26.0224 19.7239C25.9303 19.5771 25.8484 19.424 25.7773 19.266C25.7746 19.2373 25.7746 19.2085 25.7773 19.1798L25.7111 18.9941L25.6316 18.6756C25.6316 18.4504 25.5422 18.2345 25.3832 18.0752C25.2241 17.916 25.0084 17.8265 24.7835 17.8265C24.5586 17.8265 24.3429 17.916 24.1839 18.0752C24.0248 18.2345 23.9355 18.4504 23.9355 18.6756C23.9355 18.7553 23.9024 18.8482 23.8825 18.9278C23.8626 19.0074 23.8162 19.1401 23.7831 19.2462V19.3059L23.6705 19.5248C23.5285 19.8145 23.3307 20.0733 23.0886 20.2862C22.8464 20.4991 22.5645 20.6619 22.2593 20.7653C21.4112 21.0741 20.4757 21.036 19.6555 20.6592C19.0806 20.3441 18.6314 19.8405 18.3835 19.233C18.3607 19.1924 18.3408 19.1501 18.3238 19.1068C18.3238 19.0405 18.2775 18.9809 18.251 18.9212C18.2245 18.8615 18.1781 18.689 18.145 18.5696C18.1118 18.4501 18.0919 18.3373 18.0721 18.2246C17.9263 17.2494 16.4224 17.5212 16.4025 18.45C16.4003 18.4257 16.4003 18.4014 16.4025 18.3771C16.3995 18.4125 16.3995 18.4479 16.4025 18.4832V18.4832C16.3628 18.6292 16.3164 18.7752 16.2634 18.9212L16.217 19.0339L16.0911 19.266L15.9255 19.5381C15.8904 19.5983 15.8481 19.654 15.7996 19.704C15.4636 20.1006 15.0406 20.4141 14.5637 20.62C14.0868 20.826 13.5688 20.9189 13.0501 20.8915C12.614 20.905 12.1856 20.7744 11.831 20.5199C11.9304 20.5929 11.6985 20.4006 11.6787 20.3807L11.5329 20.2214C11.4249 20.0668 11.3275 19.905 11.2414 19.7372C11.2116 19.6907 11.1914 19.6389 11.1818 19.5846C11.1818 19.4984 11.1221 19.4187 11.0956 19.3324C11.0435 19.1536 11.0015 18.9719 10.9697 18.7884V18.6225V18.4832C10.9697 18.3704 10.9697 18.251 10.9697 18.1382C10.9665 18.1162 10.9665 18.094 10.9697 18.072V18.072C11.142 17.7138 11.2414 17.2892 11.3805 16.911C11.6058 16.2476 11.8376 15.6305 12.0828 14.9937C12.2945 14.3347 12.5582 13.6937 12.8712 13.0765C13.0864 12.6843 13.4375 12.3846 13.8584 12.2339L14.1168 12.1609H14.1698H14.4414C14.4767 12.1642 14.5121 12.1642 14.5474 12.1609C14.7329 12.1609 14.9184 12.1609 15.1039 12.1609H34.3836C34.5161 12.1609 34.6553 12.1609 34.7878 12.1609H34.8275" fill="black"/>
<path opacity="0.5" d="M34.6353 26.7165C34.6123 26.2172 34.4026 25.7449 34.0479 25.3933C33.6931 25.0418 33.2193 24.8368 32.7206 24.819C31.7466 24.7858 30.7329 24.819 29.7922 24.819C29.0821 24.7211 28.3588 24.8078 27.6919 25.071C26.4596 25.7344 26.7048 27.3532 26.6849 28.554C26.6849 29.9471 26.3337 32.1563 28.2153 32.5344C28.7957 32.6029 29.3812 32.6185 29.9644 32.5809H31.7268C32.3738 32.6577 33.0298 32.5711 33.6348 32.3289C34.781 31.7252 34.6353 30.4581 34.6353 29.3568C34.6353 28.4679 34.6883 27.5855 34.6353 26.7165ZM32.9392 26.7561C32.9254 26.9062 32.9254 27.0573 32.9392 27.2074V30.5244C32.9392 30.5974 32.9392 30.6968 32.9392 30.7499C32.9392 30.803 32.8994 30.7964 32.8994 30.7964C32.8994 30.7964 32.9392 30.7964 32.8199 30.8495H32.7735H32.6742C32.5 30.8362 32.325 30.8362 32.1508 30.8495H29.2555C29.0351 30.8683 28.8134 30.8683 28.593 30.8495C28.4803 30.8495 28.5267 30.8494 28.4671 30.7831C28.4601 30.7508 28.4489 30.7197 28.434 30.6903C28.434 30.6903 28.434 30.6438 28.434 30.6239V30.5311C28.434 29.8677 28.434 29.2043 28.434 28.5408C28.434 28.1494 28.434 27.7646 28.434 27.3732C28.4174 27.1524 28.4174 26.9306 28.434 26.7098C28.434 26.7098 28.434 26.5969 28.434 26.6102C28.434 26.6235 28.4803 26.6103 28.5068 26.544H28.5665C28.7872 26.5563 29.0083 26.5563 29.229 26.544H32.4356H32.7603C32.7007 26.544 32.8199 26.6103 32.7603 26.544C32.7844 26.5803 32.8065 26.6179 32.8266 26.6567C32.8303 26.692 32.8303 26.7275 32.8266 26.7628C32.8266 26.7628 32.8266 26.7628 32.8266 26.8026C32.9922 26.9353 32.926 26.8424 32.926 26.7561H32.9392Z" fill="black"/>
</g>
<path d="M33.2306 9.63348H13.7787C13.598 9.61688 13.4161 9.61688 13.2354 9.63348H13.1758H12.9439C12.3707 9.63592 11.8069 9.77934 11.302 10.0512C10.7972 10.323 10.3667 10.7149 10.0486 11.1924C9.64377 11.8906 9.31717 12.6316 9.07474 13.4016C8.80973 14.0982 8.55794 14.7947 8.30618 15.4913C8.03084 16.062 7.84961 16.6736 7.76953 17.3024C7.76953 19.1069 8.61757 21.0507 10.4197 21.6146V31.9838C10.4197 33.0386 10.3335 34.1398 10.4197 35.1946C10.4573 35.8135 10.6908 36.4043 11.0863 36.8815C11.4818 37.3586 12.0187 37.6972 12.6193 37.8482C13.397 37.9699 14.1857 38.0056 14.9712 37.9545H33.5221C34.0631 37.964 34.5995 37.8529 35.0923 37.6294C36.371 37.0522 36.742 35.7984 36.742 34.4848V21.4354C36.8882 21.3688 37.0279 21.289 37.1594 21.1967C37.9496 20.6363 38.5117 19.8096 38.7429 18.8681C38.8811 18.3668 38.9502 17.849 38.9483 17.329C38.9903 17.1906 38.9903 17.0428 38.9483 16.9044C38.6303 15.969 38.2857 15.0403 37.9478 14.1181C37.4244 12.7183 37.0071 11.0464 35.6953 10.1707C35.219 9.86511 34.6755 9.68076 34.1118 9.63348C33.9751 9.62353 33.8378 9.62353 33.701 9.63348H33.2306ZM12.2549 35.5528C12.2085 35.4666 12.2549 35.5064 12.2549 35.5528V35.5528ZM16.1837 36.276V31.8775C16.1837 30.1327 16.2499 28.3748 16.1837 26.63V26.5835C16.1827 26.5636 16.1827 26.5438 16.1837 26.5239C16.204 26.4228 16.2305 26.3232 16.2632 26.2254V26.2254C16.3029 26.1524 16.3427 26.0794 16.3891 26.0064C16.4355 25.9335 16.6011 25.7942 16.515 25.8671C16.6096 25.7844 16.7278 25.7334 16.8529 25.7212C17.2165 25.688 17.5824 25.688 17.946 25.7212C19.2711 25.7212 20.6624 25.7212 22.0206 25.7212H22.0736C22.1531 25.7212 22.2591 25.7609 22.3519 25.7875C22.4328 25.8275 22.5104 25.8741 22.5837 25.9267C22.5175 25.8737 22.6632 26.0264 22.6765 26.0529C22.7237 26.1414 22.7529 26.2383 22.7626 26.3381C22.7726 26.5238 22.7726 26.7097 22.7626 26.8953V36.2893H16.1373L16.1837 36.276ZM34.9797 35.4999C34.9194 35.6742 34.8115 35.8282 34.6683 35.9443L34.4961 36.0637L34.3371 36.1434H34.2841L34.0058 36.2163C33.975 36.22 33.9439 36.22 33.9131 36.2163H33.6745C32.6211 36.2163 31.5677 36.2163 30.5209 36.2163H24.5117V26.9883C24.5656 26.3824 24.4724 25.7724 24.2401 25.2104C24.0701 24.9011 23.8342 24.6332 23.5491 24.4256C23.2639 24.2181 22.9366 24.076 22.5904 24.0096C22.2851 23.949 21.9738 23.9244 21.6628 23.9365H19.3042C17.6943 23.9365 15.6007 23.6049 14.7858 25.3829C14.5577 25.9464 14.4581 26.5538 14.4942 27.1608V36.2163H14.1497C13.8432 36.2395 13.5353 36.2395 13.2288 36.2163C12.9879 36.1901 12.7587 36.0984 12.5663 35.951C12.5663 35.951 12.4735 35.8448 12.4404 35.8117L12.3675 35.7187L12.2681 35.5329C12.2681 35.4865 12.235 35.4401 12.2218 35.387C12.2085 35.3339 12.182 35.2079 12.1555 35.1217C12.1555 35.1217 12.1555 35.0752 12.1555 35.0553C12.1555 35.0354 12.1555 34.9359 12.1555 34.8762V34.6507C12.1555 34.0868 12.1555 33.5229 12.1555 32.959V21.7738C12.869 21.7156 13.5624 21.5085 14.1912 21.1658C14.8199 20.823 15.37 20.3521 15.806 19.7835C16.1909 20.3681 16.7028 20.8581 17.3034 21.2166C18.2981 21.7619 19.4524 21.9404 20.565 21.721C21.6776 21.5015 22.6781 20.8981 23.392 20.0158C23.9117 20.6737 24.5981 21.18 25.3796 21.4819C26.3668 21.8733 27.4566 21.9211 28.4743 21.618C29.4919 21.3148 30.3783 20.6782 30.9913 19.8101C31.6556 20.6512 32.5587 21.271 33.5818 21.588C34.0844 21.7277 34.6039 21.797 35.1255 21.7937V34.2659C35.1456 34.6824 35.0964 35.0995 34.9797 35.4999V35.4999ZM33.6083 11.3583C33.7006 11.3714 33.7942 11.3714 33.8865 11.3583H34.0522H34.2046C34.4041 11.3924 34.594 11.4694 34.7611 11.5839C35.1902 11.9021 35.5042 12.3515 35.6555 12.8642C36.159 14.1048 36.6228 15.3586 37.0667 16.6257L37.2853 17.2891C37.2886 17.3311 37.2886 17.3733 37.2853 17.4153C37.2853 17.5148 37.2853 17.6143 37.2853 17.7138C37.282 17.7602 37.282 17.8067 37.2853 17.8531V17.9592C37.2355 18.267 37.1556 18.5693 37.0468 18.8615V18.8615C37.0354 18.8985 37.0199 18.9341 37.0004 18.9676L36.8878 19.1733C36.8252 19.3044 36.74 19.4234 36.636 19.5249C36.436 19.745 36.1793 19.9057 35.894 19.9892C35.4431 20.1144 34.97 20.1371 34.5093 20.0556C33.6802 19.9439 32.9283 19.5102 32.4157 18.8482C32.3842 18.7969 32.3487 18.7481 32.3097 18.7023C32.2567 18.616 32.1971 18.5232 32.1507 18.4303C32.107 18.355 32.0672 18.2774 32.0314 18.1981L31.9917 18.125C31.9453 17.9923 31.8989 17.8531 31.8592 17.7138V17.6142C31.8578 17.4095 31.7826 17.2122 31.6475 17.0586C31.5124 16.905 31.3264 16.8055 31.1238 16.7783C30.9211 16.747 30.7141 16.7922 30.5428 16.9049C30.3715 17.0177 30.248 17.1901 30.1963 17.3887C30.1405 17.7024 30.0517 18.0092 29.9312 18.3041V18.3706C29.9043 18.4365 29.8733 18.5008 29.8385 18.563C29.7523 18.7288 29.653 18.8814 29.5536 19.034C29.4777 19.1339 29.3958 19.2291 29.3084 19.3192C29.1944 19.4426 29.0678 19.5537 28.9308 19.6509C28.5608 19.8837 28.1473 20.0384 27.7156 20.1057C27.2839 20.173 26.8429 20.1515 26.4198 20.0424C26.039 19.9565 25.6788 19.7965 25.3597 19.5714C25.1209 19.388 24.9167 19.1633 24.7569 18.908C24.6669 18.7611 24.5872 18.608 24.5184 18.4501L24.4786 18.3706L24.419 18.1781C24.419 18.072 24.366 17.9659 24.3395 17.8597C24.3395 17.6345 24.2501 17.4186 24.0911 17.2593C23.9321 17.1001 23.7163 17.0105 23.4914 17.0105C23.2665 17.0105 23.0508 17.1001 22.8917 17.2593C22.7327 17.4186 22.6434 17.6345 22.6434 17.8597C22.6434 17.9393 22.6102 18.0255 22.5904 18.1051C22.5705 18.1847 22.5241 18.3175 22.4844 18.4237V18.4833C22.4513 18.5563 22.4181 18.6293 22.3783 18.7023C22.0872 19.2865 21.5778 19.7321 20.9606 19.9428C20.1156 20.254 19.1821 20.2183 18.3634 19.8433C17.7863 19.5289 17.3348 19.0253 17.0847 18.417L17.0251 18.2842C17.0251 18.2245 16.9787 18.165 16.9588 18.0986C16.939 18.0323 16.886 17.8664 16.8529 17.7536C16.82 17.638 16.7935 17.5206 16.7734 17.402C16.6342 16.4268 15.1303 16.7053 15.1104 17.6275C15.1089 17.6032 15.1089 17.5789 15.1104 17.5546V17.6607C15.0706 17.8132 15.0309 17.9527 14.9779 18.0986C14.9779 18.0986 14.9381 18.1848 14.9249 18.2113L14.8056 18.4434C14.7526 18.5363 14.693 18.6293 14.6334 18.7155C14.6 18.7752 14.56 18.8308 14.5141 18.8814C14.1764 19.2781 13.7524 19.5921 13.2746 19.7991C12.7968 20.0061 12.278 20.1007 11.758 20.0756C11.3212 20.0871 10.8927 19.9542 10.5389 19.6974C10.6449 19.7704 10.413 19.578 10.3932 19.5581C10.3733 19.5382 10.2143 19.3657 10.2408 19.3989C10.1353 19.2439 10.0401 19.0821 9.95588 18.9146C9.95588 18.8615 9.91613 18.8482 9.91613 18.8416C9.91851 18.8151 9.91851 18.7885 9.91613 18.762C9.91613 18.6758 9.8565 18.5961 9.83663 18.5098C9.78235 18.3311 9.7381 18.1495 9.70411 17.9658C9.70411 17.9127 9.70411 17.8066 9.70411 17.7999C9.70084 17.7536 9.70084 17.707 9.70411 17.6607C9.70411 17.5479 9.70411 17.4351 9.70411 17.3157C9.70411 17.3157 9.70411 17.276 9.70411 17.2494C9.86464 16.8712 10.0018 16.4835 10.1149 16.0885C10.3401 15.425 10.5787 14.8146 10.8172 14.1777C11.03 13.516 11.2958 12.8727 11.6122 12.2539C11.8248 11.8622 12.1738 11.5623 12.5928 11.4114L12.8578 11.345H12.9042H33.8269" fill="white"/>
<path d="M33.4095 25.941C33.388 25.4395 33.1781 24.9646 32.8219 24.6116C32.4656 24.2585 31.9891 24.0533 31.4881 24.0371C30.5142 24.0039 29.5006 24.0371 28.5598 24.0371C27.8491 23.9418 27.126 24.0308 26.4595 24.2957C25.2272 24.9923 25.4724 26.5712 25.4525 27.772C25.4525 29.1718 25.108 31.3809 26.9896 31.7525C27.5698 31.8233 28.1552 31.8412 28.7387 31.8056H30.501C31.1458 31.8782 31.7987 31.7917 32.4024 31.5536C33.5552 30.9499 33.4095 29.6761 33.4095 28.5749C33.4095 27.6859 33.4559 26.8034 33.4095 25.941ZM27.4467 25.7288C27.4467 25.7288 27.4467 25.7288 27.4268 25.7288H27.4467ZM31.72 25.9742C31.7063 26.1242 31.7063 26.2753 31.72 26.4254V29.7425C31.7239 29.8176 31.7239 29.8928 31.72 29.9679C31.72 29.9679 31.72 30.0144 31.6803 30.021C31.6405 30.0277 31.7267 30.0211 31.6008 30.0675H31.5478C31.5172 30.0744 31.4856 30.0744 31.455 30.0675C31.2785 30.0576 31.1015 30.0576 30.925 30.0675H28.0364C27.8159 30.0863 27.5943 30.0863 27.3738 30.0675C27.2612 30.0675 27.3076 30.0675 27.2413 30.0078C27.2413 30.0078 27.2413 29.9413 27.2413 29.9148C27.2351 29.8931 27.2351 29.8702 27.2413 29.8485C27.238 29.8177 27.238 29.7865 27.2413 29.7556C27.2413 29.0922 27.2413 28.4288 27.2413 27.7653V26.6044C27.2246 26.3836 27.2246 26.1618 27.2413 25.941C27.2413 25.9078 27.2811 25.8216 27.2413 25.8349C27.2016 25.8481 27.2811 25.8348 27.3076 25.7685H27.3606C27.5812 25.7838 27.8025 25.7838 28.0231 25.7685H31.2298H31.561C31.4948 25.7685 31.614 25.8348 31.561 25.7685C31.5831 25.8075 31.6074 25.8452 31.6339 25.8814C31.6339 25.9145 31.6339 25.9543 31.6339 25.9875C31.6339 26.0206 31.6339 25.9875 31.6339 25.9875C31.637 26.0005 31.637 26.0142 31.6339 26.0273V26.0273C31.7664 26.16 31.667 26.0604 31.7001 25.9742H31.72Z" fill="white"/>
</svg>
