<svg id="Camada_1" data-name="Camada 1" xmlns="http://www.w3.org/2000/svg" viewBox="0 0 98.16 131.25"><defs><style>.cls-1{fill:#232323;}.cls-1,.cls-2{fill-rule:evenodd;}.cls-2,.cls-3{fill:#3f3f3f;}.cls-3{stroke:gray;stroke-miterlimit:10;stroke-width:2px;}</style></defs><polygon class="cls-1" points="92.75 128.16 92.75 58.66 4.78 8.54 4.78 77.98 0 75.74 0 0 98.16 55.4 98.16 131.25 92.75 128.16"/><polygon class="cls-2" points="92.75 128.16 92.75 58.66 4.78 8.54 4.78 77.98 92.75 128.16"/><line class="cls-3" x1="93.54" y1="63.36" x2="3.99" y2="12.28"/><line class="cls-3" x1="93.54" y1="67.45" x2="3.99" y2="16.38"/><line class="cls-3" x1="93.54" y1="71.61" x2="3.99" y2="20.54"/><line class="cls-3" x1="93.54" y1="75.7" x2="3.99" y2="24.63"/><line class="cls-3" x1="93.54" y1="79.99" x2="3.99" y2="28.92"/><line class="cls-3" x1="93.54" y1="84.09" x2="3.99" y2="33.01"/><line class="cls-3" x1="93.54" y1="88.24" x2="3.99" y2="37.17"/><line class="cls-3" x1="93.54" y1="92.34" x2="3.99" y2="41.26"/><line class="cls-3" x1="93.54" y1="96.59" x2="3.99" y2="45.51"/><line class="cls-3" x1="93.54" y1="100.68" x2="3.99" y2="49.61"/><line class="cls-3" x1="93.54" y1="104.84" x2="3.99" y2="53.77"/><line class="cls-3" x1="93.54" y1="108.93" x2="3.99" y2="57.86"/><line class="cls-3" x1="93.54" y1="113.09" x2="3.99" y2="62.02"/><line class="cls-3" x1="93.54" y1="117.18" x2="3.99" y2="66.11"/><line class="cls-3" x1="93.54" y1="121.34" x2="3.99" y2="70.27"/><line class="cls-3" x1="93.54" y1="125.44" x2="3.99" y2="74.36"/></svg>