<svg width="44" height="44" viewBox="0 0 44 44" fill="none" xmlns="http://www.w3.org/2000/svg">
<g clip-path="url(#clip0_236:5094)">
<path fill-rule="evenodd" clip-rule="evenodd" d="M14.5913 40.8994L5.15546 28.8576C4.26457 27.9663 3.55783 26.908 3.07564 25.7432C2.59346 24.5784 2.34528 23.3298 2.34528 22.0689C2.34528 20.808 2.59346 19.5595 3.07564 18.3947C3.55783 17.2298 4.26457 16.1716 5.15546 15.2803L14.0341 4.31472C19.8713 -1.26321 24.5712 -1.46991 29.9528 4.03583L41.1847 15.2803C42.0756 16.1716 42.7823 17.2298 43.2645 18.3947C43.7467 19.5595 43.9948 20.808 43.9948 22.0689C43.9948 23.3298 43.7467 24.5784 43.2645 25.7432C42.7823 26.908 42.0756 27.9663 41.1847 28.8576L29.9528 40.102C25.1611 45.6964 18.3473 44.6366 14.5913 40.8994Z" fill="#AA1F51"/>
<path d="M38.8365 15.5475L27.6035 4.30189C23.8584 0.552624 17.7865 0.552599 14.0414 4.30187L2.80837 15.5475C-0.936706 19.2967 -0.936708 25.3755 2.80837 29.1248L14.0414 40.3703C17.7865 44.1196 23.8584 44.1196 27.6035 40.3703L38.8366 29.1247C42.5816 25.3755 42.5816 19.2967 38.8365 15.5475Z" fill="#D3416E"/>
<g opacity="0.64">
<path opacity="0.64" d="M30.1101 24.9957H25.0792C24.9644 24.9957 24.8508 25.0184 24.7448 25.0624C24.6388 25.1065 24.5426 25.1711 24.4616 25.2525C24.3806 25.3339 24.3164 25.4305 24.2728 25.5367C24.2292 25.643 24.2069 25.7568 24.2074 25.8717V30.7475C24.2065 30.9793 24.1139 31.2013 23.9499 31.3649C23.7859 31.5284 23.5638 31.6203 23.3323 31.6203H18.9044C18.7897 31.6207 18.6759 31.5985 18.5698 31.5548C18.4636 31.5111 18.3671 31.4469 18.2858 31.3658C18.2045 31.2847 18.14 31.1884 18.096 31.0822C18.052 30.9761 18.0293 30.8624 18.0293 30.7475V25.8717C18.0293 25.6394 17.9371 25.4166 17.773 25.2523C17.6089 25.088 17.3863 24.9957 17.1543 24.9957H12.084C11.8519 24.9957 11.6293 24.9034 11.4652 24.7391C11.3011 24.5748 11.2089 24.352 11.2089 24.1196V20.0083C11.2085 19.8932 11.2308 19.7791 11.2747 19.6726C11.3185 19.5661 11.3829 19.4694 11.4643 19.3879C11.5456 19.3065 11.6423 19.242 11.7486 19.1981C11.855 19.1542 11.969 19.1319 12.084 19.1323H17.1543C17.3863 19.1323 17.6089 19.04 17.773 18.8757C17.9371 18.7114 18.0293 18.4886 18.0293 18.2562V13.3805C18.0293 13.1481 18.1215 12.9253 18.2856 12.761C18.4498 12.5967 18.6723 12.5044 18.9044 12.5044H23.3323C23.5641 12.5053 23.7862 12.5979 23.9501 12.762C24.114 12.9261 24.2065 13.1484 24.2074 13.3805V18.2595C24.2069 18.3744 24.2292 18.4882 24.2728 18.5945C24.3164 18.7008 24.3806 18.7974 24.4616 18.8788C24.5426 18.9602 24.6388 19.0248 24.7448 19.0688C24.8508 19.1129 24.9644 19.1356 25.0792 19.1356H30.1101C30.2251 19.1352 30.3391 19.1575 30.4455 19.2014C30.5518 19.2453 30.6485 19.3098 30.7298 19.3912C30.8112 19.4726 30.8756 19.5694 30.9194 19.6759C30.9633 19.7823 30.9856 19.8965 30.9852 20.0116V24.1229C30.9843 24.3547 30.8917 24.5766 30.7277 24.7402C30.5637 24.9038 30.3416 24.9957 30.1101 24.9957Z" fill="black"/>
</g>
<path d="M29.2874 25.8061H24.2565C24.1418 25.8061 24.0281 25.8288 23.9221 25.8728C23.8162 25.9169 23.7199 25.9815 23.6389 26.0629C23.5579 26.1443 23.4938 26.2409 23.4501 26.3472C23.4065 26.4534 23.3843 26.5673 23.3847 26.6822V31.5546C23.3847 31.787 23.2925 32.0098 23.1284 32.1741C22.9643 32.3384 22.7417 32.4307 22.5096 32.4307H18.0818C17.9667 32.4311 17.8528 32.4088 17.7464 32.3649C17.64 32.321 17.5434 32.2565 17.462 32.1751C17.3807 32.0936 17.3163 31.9969 17.2724 31.8904C17.2286 31.7839 17.2063 31.6698 17.2067 31.5546V26.6822C17.2067 26.4498 17.1145 26.227 16.9504 26.0627C16.7863 25.8984 16.5637 25.8061 16.3316 25.8061H11.2614C11.0296 25.8052 10.8075 25.7126 10.6436 25.5485C10.4796 25.3844 10.3872 25.1621 10.3863 24.93V20.8188C10.3863 20.7037 10.4089 20.5898 10.4529 20.4835C10.4969 20.3772 10.5613 20.2806 10.6426 20.1993C10.7239 20.1179 10.8203 20.0534 10.9265 20.0094C11.0327 19.9654 11.1465 19.9427 11.2614 19.9427H16.3316C16.5634 19.9418 16.7855 19.8493 16.9494 19.6852C17.1134 19.521 17.2058 19.2987 17.2067 19.0666V14.1909C17.2067 13.9585 17.2989 13.7357 17.463 13.5714C17.6271 13.4071 17.8497 13.3148 18.0818 13.3148H22.5096C22.7415 13.3157 22.9635 13.4083 23.1275 13.5724C23.2914 13.7365 23.3839 13.9588 23.3847 14.1909V19.0666C23.3847 19.2984 23.4765 19.5208 23.6399 19.685C23.8033 19.8492 24.025 19.9418 24.2565 19.9427H29.2874C29.4025 19.9423 29.5165 19.9646 29.6228 20.0085C29.7292 20.0524 29.8258 20.1169 29.9072 20.1983C29.9885 20.2797 30.053 20.3765 30.0968 20.483C30.1406 20.5895 30.163 20.7036 30.1625 20.8188V24.93C30.1625 25.1624 30.0703 25.3852 29.9062 25.5495C29.7421 25.7138 29.5195 25.8061 29.2874 25.8061Z" fill="white"/>
</g>
<defs>
<clipPath id="clip0_236:5094">
<rect width="44" height="44" fill="white"/>
</clipPath>
</defs>
</svg>
