<svg id="Camada_1" data-name="Camada 1" xmlns="http://www.w3.org/2000/svg" viewBox="0 0 29.13 74.55"><defs><style>.cls-1{fill:#3f3f3f;}.cls-2{fill:#ffb600;}.cls-3{fill:#dbad1b;}.cls-4{fill:#b28a1b;}.cls-5{fill:#232323;fill-rule:evenodd;}</style></defs><polygon class="cls-1" points="2.92 73.02 2.92 18.83 26.07 5.4 26.07 59.66 2.92 73.02"/><polygon class="cls-2" points="24.43 37.15 19.71 39.69 19.71 38.57 24.43 36.03 24.43 37.15"/><polygon class="cls-3" points="23.55 35.26 24.45 36.05 23.76 36.39 22.91 35.59 23.55 35.26"/><polygon class="cls-4" points="22.9 36.8 22.9 35.58 23.74 36.38 22.9 36.8"/><polygon class="cls-4" points="19.23 39.28 19.23 38.05 19.71 38.57 19.71 39.69 19.23 39.28"/><polygon class="cls-3" points="19.23 38.06 19.71 38.57 23.76 36.39 23.26 35.92 19.23 38.06"/><polygon class="cls-5" points="0 74.55 0 16.99 29.13 0 29.13 58.03 26.07 59.66 26.07 59.66 26.07 5.4 2.92 18.83 2.92 73.02 0 74.55"/></svg>