<svg id="Camada_1" data-name="Camada 1" xmlns="http://www.w3.org/2000/svg" viewBox="0 0 35.96 92.04"><defs><style>.cls-1{fill:#3f3f3f;}.cls-2{fill:#ffb600;}.cls-3{fill:#dbad1b;}.cls-4{fill:#b28a1b;}.cls-5{fill:#232323;fill-rule:evenodd;}</style></defs><polygon class="cls-1" points="3.6 90.16 3.6 23.25 32.18 6.66 32.18 73.66 3.6 90.16"/><polygon class="cls-2" points="30.16 45.87 24.34 49 24.34 47.62 30.16 44.48 30.16 45.87"/><polygon class="cls-3" points="29.08 43.54 30.18 44.5 29.33 44.93 28.29 43.94 29.08 43.54"/><polygon class="cls-4" points="28.27 45.44 28.27 43.92 29.31 44.91 28.27 45.44"/><polygon class="cls-4" points="23.75 48.5 23.75 46.98 24.34 47.62 24.34 49 23.75 48.5"/><polygon class="cls-3" points="23.75 47 24.34 47.62 29.33 44.93 28.72 44.35 23.75 47"/><polygon class="cls-5" points="0 92.04 0 20.98 35.96 0 35.96 71.65 32.18 73.66 32.18 73.66 32.18 6.66 3.6 23.25 3.6 90.16 0 92.04"/></svg>