<svg width="198" height="229" viewBox="0 0 198 229" fill="none" xmlns="http://www.w3.org/2000/svg">
<g clip-path="url(#clip0_358_3824)">
<path fill-rule="evenodd" clip-rule="evenodd" d="M4.6178 176.443L19.9966 185.331L72.9766 215.922L92.1104 226.975C94.3375 228.307 96.8842 229.011 99.4794 229.011C102.075 229.011 104.621 228.307 106.848 226.975L194.322 176.443C195.452 175.811 196.391 174.886 197.038 173.765C197.685 172.643 198.018 171.368 198 170.073V108.898H0.93967V170.073C0.921128 171.368 1.25324 172.644 1.90077 173.765C2.5483 174.886 3.48715 175.812 4.6178 176.443Z" fill="#96D32C"/>
<path fill-rule="evenodd" clip-rule="evenodd" d="M137.779 208.758L193.72 176.462C194.85 175.831 195.788 174.905 196.436 173.784C197.083 172.663 197.415 171.387 197.398 170.093V108.917H92.7512C97.5891 141.418 98.8643 167.824 98.8643 167.824V228.987C101.447 228.977 103.981 228.283 106.208 226.975L137.779 208.758Z" fill="#78AE18"/>
<path fill-rule="evenodd" clip-rule="evenodd" d="M4.61783 115.286L92.1105 165.8C94.3376 167.132 96.8842 167.836 99.4795 167.836C102.075 167.836 104.621 167.132 106.848 165.8L194.348 115.286C195.477 114.654 196.415 113.729 197.063 112.608C197.71 111.487 198.043 110.212 198.026 108.917C198.044 107.622 197.712 106.347 197.065 105.225C196.417 104.104 195.478 103.179 194.348 102.548L106.848 52.0283C104.621 50.6979 102.074 49.9955 99.4795 49.9955C96.8847 49.9955 94.3383 50.6979 92.1105 52.0283L4.61783 102.548C3.48809 103.18 2.55002 104.105 1.90263 105.226C1.25524 106.348 0.922532 107.623 0.939694 108.917C0.921842 110.212 1.25423 111.487 1.90169 112.608C2.54915 113.729 3.48763 114.655 4.61783 115.286Z" fill="#A5DE45"/>
<path fill-rule="evenodd" clip-rule="evenodd" d="M71.2657 215.332V172.854L17.4976 142.219V184.664L14.5756 183.293V137.003L74.5722 170.855V217.216L71.2657 215.332Z" fill="#232323"/>
<path fill-rule="evenodd" clip-rule="evenodd" d="M71.2657 215.332V172.855L17.4976 142.219V184.664L71.2657 215.332Z" fill="#3F3F3F"/>
<path d="M71.7463 175.725L17.0106 144.506" stroke="#808080" stroke-width="2" stroke-miterlimit="10"/>
<path d="M71.7463 178.224L17.0106 147.012" stroke="#808080" stroke-width="2" stroke-miterlimit="10"/>
<path d="M71.7463 180.768L17.0106 149.549" stroke="#808080" stroke-width="2" stroke-miterlimit="10"/>
<path d="M71.7463 183.267L17.0106 152.055" stroke="#808080" stroke-width="2" stroke-miterlimit="10"/>
<path d="M71.7463 185.894L17.0106 154.675" stroke="#808080" stroke-width="2" stroke-miterlimit="10"/>
<path d="M71.7463 188.394L17.0106 157.175" stroke="#808080" stroke-width="2" stroke-miterlimit="10"/>
<path d="M71.7463 190.937L17.0106 159.718" stroke="#808080" stroke-width="2" stroke-miterlimit="10"/>
<path d="M71.7463 193.436L17.0106 162.217" stroke="#808080" stroke-width="2" stroke-miterlimit="10"/>
<path d="M71.7463 196.038L17.0106 164.819" stroke="#808080" stroke-width="2" stroke-miterlimit="10"/>
<path d="M71.7463 198.537L17.0106 167.318" stroke="#808080" stroke-width="2" stroke-miterlimit="10"/>
<path d="M71.7463 201.081L17.0106 169.862" stroke="#808080" stroke-width="2" stroke-miterlimit="10"/>
<path d="M71.7463 203.58L17.0106 172.361" stroke="#808080" stroke-width="2" stroke-miterlimit="10"/>
<path d="M71.7463 206.124L17.0106 174.905" stroke="#808080" stroke-width="2" stroke-miterlimit="10"/>
<path d="M71.7463 208.623L17.0106 177.404" stroke="#808080" stroke-width="2" stroke-miterlimit="10"/>
<path d="M71.7463 211.167L17.0106 179.948" stroke="#808080" stroke-width="2" stroke-miterlimit="10"/>
<path d="M71.7463 213.666L17.0106 182.447" stroke="#808080" stroke-width="2" stroke-miterlimit="10"/>
<path fill-rule="evenodd" clip-rule="evenodd" d="M31.3257 108.968L36.7211 112.082L42.1165 115.197L79.2435 136.637L92.6359 144.365C94.1944 145.296 95.9757 145.787 97.791 145.787C99.6062 145.787 101.388 145.296 102.946 144.365L164.256 108.968C165.049 108.522 165.706 107.87 166.158 107.08C166.609 106.29 166.838 105.392 166.819 104.483V41.295H28.7497V104.483C28.7334 105.393 28.9643 106.292 29.4179 107.081C29.8715 107.871 30.5308 108.523 31.3257 108.968Z" fill="#D35056"/>
<path fill-rule="evenodd" clip-rule="evenodd" d="M97.7942 145.788C99.5984 145.773 101.367 145.282 102.92 144.365L164.231 108.968C165.024 108.522 165.681 107.87 166.132 107.08C166.583 106.29 166.812 105.392 166.794 104.483V41.295H93.5074C96.8971 64.0685 97.7942 82.5679 97.7942 82.5679V145.788Z" fill="#AE363D"/>
<path fill-rule="evenodd" clip-rule="evenodd" d="M31.3257 45.7805L92.6359 81.1774C94.1948 82.1068 95.976 82.5975 97.791 82.5975C99.6059 82.5975 101.387 82.1068 102.946 81.1774L164.256 45.7805C165.049 45.3345 165.706 44.6818 166.158 43.892C166.609 43.1021 166.838 42.2046 166.819 41.295C166.837 40.3856 166.608 39.4884 166.157 38.6986C165.705 37.9089 165.049 37.2561 164.256 36.8095L102.946 1.4126C101.388 0.483064 99.6082 -0.00769043 97.7942 -0.00769043C95.9802 -0.00769043 94.2 0.483064 92.6423 1.4126L31.3257 36.8095C30.5332 37.2561 29.8765 37.9089 29.4252 38.6986C28.9739 39.4884 28.7449 40.3856 28.7626 41.295C28.7449 42.2045 28.9739 43.1017 29.4252 43.8914C29.8765 44.6812 30.5332 45.334 31.3257 45.7805Z" fill="#DE6B6F"/>
<path d="M121.651 129.518L111.052 135.695C110.917 135.774 110.763 135.816 110.606 135.817C110.45 135.817 110.296 135.776 110.16 135.698C110.024 135.62 109.911 135.508 109.833 135.372C109.754 135.237 109.713 135.083 109.713 134.927V83.8304C109.712 83.579 109.777 83.332 109.902 83.1138C110.027 82.8956 110.207 82.7141 110.424 82.5873L121.266 76.2691C121.378 76.203 121.505 76.168 121.635 76.1675C121.765 76.167 121.893 76.2012 122.005 76.2664C122.117 76.3317 122.21 76.4258 122.274 76.5389C122.338 76.652 122.37 76.7801 122.368 76.9099V128.288C122.365 128.538 122.298 128.782 122.172 128.998C122.046 129.214 121.866 129.393 121.651 129.518Z" fill="#F4F4F4"/>
<path d="M120.497 128.845L112.199 133.664C112.063 133.743 111.909 133.785 111.752 133.785C111.595 133.786 111.44 133.744 111.304 133.665C111.168 133.587 111.055 133.473 110.977 133.337C110.899 133.201 110.859 133.046 110.86 132.889V84.5096C110.86 84.2577 110.927 84.0104 111.053 83.7923C111.179 83.5742 111.36 83.3929 111.577 83.2665L120.119 78.3068C120.231 78.2423 120.358 78.2085 120.486 78.2089C120.615 78.2092 120.742 78.2437 120.853 78.3088C120.964 78.3739 121.057 78.4672 121.12 78.5794C121.184 78.6916 121.216 78.8186 121.215 78.9475V127.609C121.213 127.859 121.146 128.105 121.02 128.322C120.894 128.539 120.714 128.719 120.497 128.845Z" fill="#80D1CF"/>
<path d="M140.56 118.772L129.962 124.949C129.826 125.028 129.673 125.07 129.516 125.071C129.359 125.071 129.205 125.03 129.069 124.952C128.934 124.874 128.821 124.762 128.742 124.626C128.664 124.491 128.622 124.337 128.622 124.18V73.0844C128.618 72.8264 128.682 72.5719 128.808 72.3468C128.934 72.1217 129.118 71.934 129.34 71.8028L140.169 65.5167C140.281 65.4522 140.408 65.4185 140.537 65.4188C140.665 65.4192 140.792 65.4536 140.903 65.5187C141.015 65.5838 141.107 65.6772 141.17 65.7894C141.234 65.9016 141.266 66.0286 141.265 66.1575V117.529C141.264 117.779 141.198 118.025 141.075 118.243C140.951 118.46 140.774 118.643 140.56 118.772Z" fill="#F4F4F4"/>
<path d="M139.413 118.093L131.083 122.912C130.948 122.991 130.794 123.032 130.637 123.033C130.481 123.033 130.327 122.993 130.191 122.915C130.055 122.837 129.942 122.724 129.864 122.589C129.785 122.453 129.744 122.299 129.744 122.143V73.7572C129.744 73.5054 129.811 73.2581 129.937 73.04C130.063 72.8219 130.244 72.6406 130.461 72.5141L139.003 67.5544C139.115 67.49 139.241 67.4562 139.37 67.4565C139.499 67.4569 139.626 67.4913 139.737 67.5564C139.848 67.6215 139.94 67.7149 140.004 67.8271C140.067 67.9393 140.1 68.0663 140.099 68.1952V116.85C140.102 117.099 140.041 117.344 139.92 117.562C139.8 117.78 139.625 117.963 139.413 118.093Z" fill="#80D1CF"/>
<path d="M159.008 108.219L148.403 114.396C148.268 114.475 148.115 114.517 147.959 114.518C147.802 114.519 147.648 114.478 147.513 114.4C147.377 114.322 147.265 114.209 147.187 114.073C147.11 113.937 147.069 113.783 147.07 113.627V62.5307C147.07 62.2794 147.135 62.0323 147.26 61.8141C147.385 61.5959 147.565 61.4144 147.782 61.2876L158.624 54.9695C158.735 54.905 158.862 54.8712 158.991 54.8716C159.12 54.8719 159.247 54.9064 159.358 54.9715C159.469 55.0366 159.561 55.13 159.625 55.2422C159.688 55.3543 159.721 55.4813 159.72 55.6103V106.988C159.718 107.237 159.652 107.482 159.527 107.698C159.402 107.913 159.223 108.093 159.008 108.219Z" fill="#F4F4F4"/>
<path d="M157.855 107.539L149.525 112.364C149.389 112.444 149.235 112.485 149.077 112.486C148.92 112.486 148.766 112.444 148.63 112.366C148.494 112.287 148.381 112.174 148.303 112.037C148.225 111.901 148.184 111.746 148.185 111.589V63.2099C148.186 62.958 148.253 62.7108 148.379 62.4927C148.505 62.2746 148.685 62.0932 148.903 61.9667L157.47 57.0071C157.582 56.9426 157.709 56.9088 157.838 56.9092C157.967 56.9095 158.093 56.944 158.204 57.0091C158.316 57.0742 158.408 57.1676 158.471 57.2798C158.535 57.3919 158.568 57.5189 158.566 57.6479V106.309C158.564 106.558 158.497 106.802 158.373 107.018C158.248 107.233 158.07 107.413 157.855 107.539Z" fill="#80D1CF"/>
<path d="M73.8801 129.422L84.4851 135.599C84.6204 135.678 84.7741 135.72 84.9308 135.72C85.0874 135.721 85.2413 135.68 85.3772 135.602C85.513 135.524 85.6258 135.412 85.7044 135.276C85.7829 135.141 85.8243 134.987 85.8243 134.83V83.7343C85.8237 83.4824 85.7571 83.2351 85.6312 83.017C85.5053 82.7989 85.3244 82.6176 85.1067 82.4912L74.2646 76.1666C74.153 76.1022 74.0262 76.0684 73.8973 76.0687C73.7684 76.0691 73.6419 76.1035 73.5306 76.1686C73.4193 76.2337 73.3272 76.3271 73.2636 76.4393C73.2001 76.5515 73.1674 76.6785 73.1689 76.8074V128.185C73.17 128.436 73.2361 128.681 73.3608 128.898C73.4855 129.115 73.6645 129.295 73.8801 129.422Z" fill="#F4F4F4"/>
<path d="M75.0335 128.743L83.3317 133.562C83.467 133.641 83.6207 133.682 83.7773 133.683C83.9339 133.683 84.088 133.643 84.2238 133.565C84.3596 133.487 84.4724 133.374 84.5509 133.239C84.6294 133.103 84.6709 132.949 84.671 132.793V84.4071C84.6716 84.155 84.6056 83.9072 84.4795 83.6889C84.3535 83.4706 84.1719 83.2895 83.9533 83.164L75.4116 78.2043C75.3 78.1399 75.1733 78.1061 75.0443 78.1064C74.9154 78.1068 74.7888 78.1413 74.6775 78.2064C74.5663 78.2715 74.4742 78.3648 74.4107 78.477C74.3471 78.5892 74.3144 78.7162 74.3159 78.8451V127.506C74.3176 127.757 74.3847 128.003 74.5106 128.22C74.6364 128.437 74.8167 128.617 75.0335 128.743Z" fill="#80D1CF"/>
<path d="M54.9449 118.67L65.5435 124.847C65.6788 124.926 65.8325 124.968 65.9892 124.968C66.1458 124.969 66.2997 124.928 66.4356 124.85C66.5714 124.772 66.6842 124.659 66.7628 124.524C66.8413 124.388 66.8827 124.235 66.8828 124.078V72.9819C66.8834 72.7305 66.818 72.4834 66.6932 72.2653C66.5684 72.0471 66.3885 71.8655 66.1715 71.7387L55.3294 65.4206C55.2176 65.3545 55.0902 65.3194 54.9603 65.319C54.8304 65.3185 54.7028 65.3526 54.5905 65.4179C54.4782 65.4832 54.3854 65.5773 54.3215 65.6904C54.2577 65.8035 54.2251 65.9315 54.2273 66.0614V117.439C54.2301 117.689 54.2978 117.934 54.4236 118.149C54.5494 118.365 54.729 118.544 54.9449 118.67Z" fill="#F4F4F4"/>
<path d="M56.124 117.997L64.4222 122.816C64.5579 122.895 64.7123 122.937 64.8694 122.937C65.0266 122.937 65.181 122.896 65.317 122.817C65.453 122.738 65.5658 122.625 65.6438 122.489C65.7219 122.352 65.7625 122.197 65.7614 122.04V73.6612C65.7608 73.4093 65.6942 73.162 65.5683 72.9439C65.4424 72.7258 65.2615 72.5445 65.0437 72.418L56.5021 67.4584C56.3904 67.3939 56.2637 67.3601 56.1348 67.3605C56.0059 67.3608 55.8793 67.3953 55.768 67.4604C55.6567 67.5255 55.5647 67.6189 55.5011 67.731C55.4376 67.8432 55.4049 67.9702 55.4063 68.0992V116.76C55.4099 117.011 55.4779 117.256 55.6036 117.472C55.7292 117.689 55.9085 117.87 56.124 117.997Z" fill="#80D1CF"/>
<path d="M36.5288 108.123L47.1274 114.287C47.2627 114.366 47.4164 114.408 47.573 114.408C47.7296 114.409 47.8836 114.368 48.0195 114.29C48.1553 114.212 48.2681 114.099 48.3466 113.964C48.4251 113.828 48.4666 113.675 48.4667 113.518V62.4218C48.4708 62.1639 48.4066 61.9094 48.2806 61.6843C48.1545 61.4592 47.9711 61.2715 47.749 61.1403L36.9069 54.8221C36.7952 54.7577 36.6685 54.7239 36.5396 54.7242C36.4107 54.7246 36.2841 54.759 36.1729 54.8241C36.0616 54.8892 35.9695 54.9826 35.9059 55.0948C35.8424 55.207 35.8097 55.334 35.8112 55.4629V106.835C35.8058 107.094 35.8695 107.349 35.9956 107.576C36.1217 107.802 36.3057 107.991 36.5288 108.123Z" fill="#F4F4F4"/>
<path d="M37.6758 107.443L46.006 112.262C46.1408 112.341 46.2943 112.383 46.4508 112.384C46.6072 112.385 46.761 112.344 46.8965 112.266C47.032 112.188 47.1443 112.075 47.222 111.939C47.2998 111.803 47.3401 111.649 47.3389 111.493V63.1074C47.3395 62.8561 47.2742 62.6089 47.1493 62.3908C47.0245 62.1726 46.8446 61.9911 46.6276 61.8643L38.0859 56.9046C37.9738 56.8406 37.8468 56.8072 37.7177 56.8077C37.5886 56.8083 37.4619 56.8427 37.3503 56.9076C37.2387 56.9724 37.1461 57.0656 37.0818 57.1775C37.0175 57.2894 36.9836 57.4163 36.9838 57.5454V106.207C36.9829 106.455 37.0461 106.699 37.1674 106.916C37.2886 107.132 37.4638 107.314 37.6758 107.443Z" fill="#80D1CF"/>
<path d="M134.793 193.968L119.888 202.657C119.697 202.758 119.483 202.809 119.267 202.805C119.05 202.8 118.839 202.742 118.651 202.633C118.464 202.525 118.307 202.372 118.195 202.186C118.083 202.001 118.02 201.791 118.011 201.574V179.73C118.012 179.375 118.106 179.027 118.283 178.72C118.461 178.413 118.716 178.158 119.023 177.981L134.268 169.1C134.424 169.009 134.601 168.962 134.781 168.962C134.961 168.962 135.138 169.01 135.294 169.1C135.45 169.191 135.579 169.32 135.669 169.477C135.759 169.633 135.806 169.81 135.806 169.99V192.225C135.805 192.579 135.711 192.927 135.533 193.233C135.356 193.539 135.1 193.793 134.793 193.968Z" fill="#F4F4F4"/>
<path d="M133.172 193.02L121.503 199.793C121.312 199.894 121.098 199.944 120.881 199.94C120.665 199.936 120.453 199.877 120.266 199.769C120.078 199.661 119.921 199.507 119.81 199.322C119.698 199.137 119.634 198.926 119.626 198.71V180.685C119.625 180.331 119.718 179.982 119.894 179.675C120.071 179.368 120.325 179.113 120.632 178.935L132.64 171.957C132.796 171.867 132.972 171.82 133.152 171.82C133.331 171.82 133.508 171.867 133.664 171.956C133.819 172.046 133.949 172.175 134.039 172.33C134.129 172.486 134.177 172.662 134.178 172.842V191.264C134.179 191.619 134.087 191.969 133.91 192.277C133.733 192.585 133.479 192.841 133.172 193.02Z" fill="#80D1CF"/>
<path d="M160.674 179.006L145.744 187.689C145.552 187.791 145.338 187.843 145.121 187.839C144.903 187.836 144.691 187.777 144.502 187.669C144.314 187.561 144.156 187.406 144.044 187.22C143.931 187.034 143.868 186.823 143.86 186.606V164.761C143.861 164.408 143.954 164.061 144.13 163.756C144.307 163.45 144.561 163.196 144.866 163.018L160.104 154.131C160.26 154.039 160.438 153.99 160.619 153.99C160.8 153.989 160.978 154.036 161.135 154.127C161.292 154.217 161.422 154.348 161.513 154.505C161.603 154.662 161.649 154.84 161.648 155.022V177.257C161.651 177.608 161.563 177.953 161.392 178.26C161.221 178.566 160.974 178.823 160.674 179.006Z" fill="#F4F4F4"/>
<path d="M159.021 178.051L147.359 184.824C147.167 184.927 146.953 184.978 146.735 184.975C146.518 184.972 146.305 184.913 146.117 184.805C145.929 184.696 145.771 184.542 145.658 184.356C145.546 184.17 145.483 183.959 145.475 183.741V165.716C145.476 165.362 145.569 165.015 145.745 164.708C145.922 164.401 146.175 164.145 146.481 163.967L158.489 156.995C158.644 156.904 158.819 156.856 158.998 156.854C159.177 156.852 159.353 156.897 159.509 156.985C159.666 157.072 159.796 157.199 159.888 157.353C159.98 157.506 160.03 157.681 160.034 157.86V176.276C160.039 176.636 159.947 176.99 159.769 177.302C159.591 177.614 159.333 177.873 159.021 178.051Z" fill="#80D1CF"/>
<path d="M186.671 164.037L171.773 172.72C171.581 172.822 171.366 172.874 171.149 172.871C170.932 172.867 170.719 172.809 170.531 172.7C170.342 172.592 170.185 172.438 170.072 172.252C169.96 172.066 169.897 171.854 169.889 171.637V149.799C169.888 149.445 169.981 149.097 170.158 148.79C170.334 148.483 170.588 148.227 170.895 148.05L186.133 139.168C186.288 139.077 186.466 139.028 186.646 139.027C186.827 139.026 187.004 139.073 187.161 139.163C187.318 139.253 187.448 139.382 187.539 139.538C187.629 139.695 187.677 139.872 187.677 140.053V162.288C187.676 162.642 187.583 162.989 187.407 163.296C187.23 163.603 186.976 163.859 186.671 164.037Z" fill="#F4F4F4"/>
<path d="M185.024 163.083L173.355 169.862C173.163 169.958 172.95 170.004 172.735 169.995C172.52 169.987 172.311 169.925 172.126 169.814C171.942 169.704 171.788 169.549 171.679 169.363C171.571 169.178 171.51 168.968 171.504 168.753V150.747C171.504 150.393 171.598 150.046 171.774 149.739C171.95 149.432 172.204 149.177 172.51 148.998L184.518 142.026C184.674 141.935 184.852 141.886 185.033 141.885C185.214 141.885 185.392 141.932 185.549 142.022C185.706 142.113 185.836 142.243 185.926 142.401C186.016 142.558 186.063 142.736 186.062 142.917V161.333C186.06 161.691 185.963 162.041 185.781 162.349C185.598 162.656 185.337 162.909 185.024 163.083Z" fill="#80D1CF"/>
</g>
<defs>
<clipPath id="clip0_358_3824">
<rect width="197.06" height="228.965" fill="white" transform="translate(0.939697 0.0350342)"/>
</clipPath>
</defs>
</svg>
