<svg width="70" height="71" viewBox="0 0 70 71" fill="none" xmlns="http://www.w3.org/2000/svg">
<path d="M55.8393 0.200501L13.7663 0.2005C6.16338 0.2005 3.09448e-09 6.39881 6.91171e-09 14.0448L2.80355e-08 56.3562C3.18527e-08 64.0022 6.16338 70.2005 13.7663 70.2005L55.8393 70.2005C63.4422 70.2005 69.6056 64.0022 69.6056 56.3562L69.6056 14.0448C69.6056 6.39881 63.4422 0.200501 55.8393 0.200501Z" fill="#FFA300"/>
<g opacity="0.5">
<path opacity="0.5" d="M24.4163 20.9099C24.7233 18.5141 24.7233 18.5143 27.0855 18.5143L46.2903 18.5143C48.5924 18.5143 48.6258 18.5141 48.8527 20.9099C49.9137 20.9099 50.9947 20.9099 52.069 20.9099C52.7777 20.8713 53.4741 21.1072 54.0152 21.569C54.5563 22.0308 54.901 22.6835 54.9784 23.393C55.2787 26.2518 55.0385 29.0098 53.1434 31.3787C51.8874 33.0374 50.0408 34.1416 47.9919 34.459C47.6604 34.4935 47.341 34.6033 47.0578 34.78C46.7746 34.9567 46.535 35.1957 46.357 35.4791C45.2237 37.0984 43.6832 38.3859 41.8928 39.2101C40.9684 39.6028 40.1894 40.2768 39.6652 41.1373C39.141 41.9979 38.8979 43.0019 38.97 44.0084C38.97 44.599 38.97 45.1962 38.97 45.7867C38.9629 45.9992 39.0003 46.2108 39.0798 46.4078C39.1592 46.6048 39.279 46.7827 39.4313 46.9301C39.5835 47.0776 39.7649 47.1911 39.9637 47.2635C40.1624 47.3359 40.374 47.3655 40.5849 47.3504C41.5191 47.3504 42.4533 47.3504 43.3808 47.3504C43.6298 47.3214 43.8821 47.3478 44.1199 47.4275C44.3577 47.5072 44.5752 47.6384 44.7571 47.8117C44.9391 47.9851 45.081 48.1965 45.173 48.431C45.2649 48.6655 45.3046 48.9174 45.2893 49.169C45.2893 49.84 45.2893 50.4775 45.2893 51.1352C45.2893 51.256 45.2359 51.3768 45.2092 51.5312L27.9463 51.5312C27.9463 50.6588 27.8996 49.8468 27.9463 49.0482C27.9511 48.8122 28.0037 48.5797 28.1007 48.3648C28.1978 48.15 28.3374 47.9572 28.511 47.7983C28.6846 47.6394 28.8885 47.5178 29.1104 47.4408C29.3322 47.3638 29.5673 47.333 29.8014 47.3504C30.7356 47.3504 31.6698 47.3504 32.5974 47.3504C32.8236 47.3751 33.0525 47.3482 33.267 47.2717C33.4815 47.1953 33.6761 47.0713 33.8364 46.9088C33.9967 46.7463 34.1185 46.5496 34.1928 46.3333C34.2671 46.1169 34.292 45.8866 34.2656 45.6592C34.2656 44.9882 34.2656 44.2835 34.2656 43.599C34.2926 42.7005 34.0533 41.8144 33.5779 41.0531C33.1026 40.2919 32.4129 39.6901 31.5964 39.3243C29.5961 38.3656 27.8732 36.9078 26.5917 35.0898C26.3903 34.8395 26.106 34.6704 25.7909 34.6134C20.9264 33.7745 18.0837 30.4325 18.057 25.4732C18.0314 24.8196 18.0492 24.165 18.1104 23.5137C18.1714 22.7894 18.5051 22.1158 19.0434 21.6306C19.5816 21.1454 20.2838 20.8853 21.0064 20.9033C22.1275 20.8966 23.2485 20.9099 24.4163 20.9099ZM34.2189 33.7342C34.3056 33.7342 34.4991 33.7343 34.5926 33.6135C35.9272 32.2243 37.2617 32.1774 38.5963 33.6135C38.7556 33.688 38.9304 33.7227 39.1059 33.7145C39.2814 33.7064 39.4523 33.6555 39.604 33.5664C39.727 33.4396 39.8217 33.2878 39.8815 33.1211C39.9414 32.9544 39.9651 32.7768 39.951 32.6001C39.873 32.0769 39.7248 31.5667 39.5105 31.0835C39.4023 30.843 39.3897 30.5699 39.4753 30.3203C39.5609 30.0708 39.7383 29.8636 39.971 29.7413C40.2245 29.5669 40.4781 29.3856 40.725 29.191C41.1854 28.8353 41.766 28.52 41.4991 27.7818C41.2321 27.0437 40.665 27.1576 40.1044 27.1509C38.2427 27.1509 38.2427 27.151 37.6621 25.3592C37.6471 25.2669 37.6105 25.1794 37.5554 25.1041C37.2284 24.7887 36.888 24.2855 36.5344 24.2453C36.1807 24.205 35.7003 24.7419 35.6402 25.0841C35.3333 26.8088 34.3723 27.4596 32.7041 27.1576C32.6738 27.1474 32.641 27.1474 32.6107 27.1576C32.2904 27.359 31.8099 27.5 31.7032 27.7818C31.6626 27.964 31.6683 28.1534 31.7196 28.3328C31.7709 28.5122 31.8662 28.6758 31.9968 28.8085C33.7451 29.6808 33.9987 30.9225 33.2113 32.6203C32.9844 33.184 33.5516 33.761 34.2189 33.7342ZM24.3629 23.1916C23.8024 23.1916 23.2485 23.1916 22.688 23.1916C20.1389 23.1916 20.3458 22.809 20.3258 25.6343C20.2877 26.5899 20.4593 27.5423 20.8284 28.4238C21.1974 29.3052 21.7549 30.0941 22.4611 30.7345C23.0837 31.3886 23.8887 31.8378 24.77 32.0229L24.3629 23.1916ZM48.479 32.0162C48.9536 31.8234 49.4151 31.5992 49.8603 31.3451C51.0212 30.5167 51.9108 29.3596 52.4158 28.0212C52.9208 26.6828 53.0185 25.2235 52.6963 23.8291C52.6497 23.6925 52.5717 23.569 52.4684 23.4687C52.3652 23.3684 52.2397 23.2942 52.1024 23.2521C51.0014 23.1984 49.9003 23.2521 48.8793 23.2521C48.7592 26.2182 48.6325 29.097 48.499 32.0162L48.479 32.0162Z" fill="black"/>
<path opacity="0.5" d="M36.4744 57.9467L25.2038 57.9467C24.0294 57.9467 23.9693 57.8863 23.9626 56.7589C23.9626 53.7525 24.3163 53.4035 27.3392 53.4035L46.5306 53.4035C48.379 53.4035 49.0663 54.0746 49.073 55.9268C49.073 58.242 49.1731 57.94 47.0711 57.94L36.4744 57.9467Z" fill="black"/>
</g>
<path d="M22.301 19.1853C22.6012 16.7896 22.6012 16.7895 24.9701 16.7895L44.1816 16.7895C46.4837 16.7895 46.5171 16.7896 46.744 19.1853C47.805 19.1853 48.8793 19.1853 49.9604 19.1853C50.6683 19.1469 51.3639 19.3828 51.9039 19.8448C52.4439 20.3067 52.7872 20.9594 52.8631 21.6683C53.1634 24.5271 52.9298 27.2851 51.0347 29.654C49.7771 31.3142 47.9278 32.4185 45.8765 32.7343C45.546 32.7693 45.2278 32.8794 44.9457 33.0561C44.6637 33.2328 44.4252 33.4715 44.2483 33.7544C43.1134 35.3722 41.5733 36.6595 39.7841 37.4856C38.8591 37.8774 38.0795 38.5511 37.5552 39.4118C37.0309 40.2726 36.7882 41.277 36.8613 42.2837C36.8613 42.8743 36.8613 43.4715 36.8613 44.062C36.8532 44.2748 36.8899 44.487 36.9689 44.6844C37.048 44.8819 37.1678 45.0602 37.3203 45.2079C37.4728 45.3556 37.6546 45.4691 37.8538 45.5411C38.053 45.6132 38.2651 45.6419 38.4762 45.6257C39.4037 45.6257 40.3379 45.6257 41.2722 45.6257C41.5209 45.598 41.7727 45.6252 42.01 45.7053C42.2472 45.7855 42.4642 45.9167 42.6459 46.0898C42.8276 46.263 42.9695 46.4737 43.0619 46.7077C43.1542 46.9416 43.1947 47.193 43.1806 47.4443C43.1806 48.1154 43.1806 48.7866 43.1806 49.4107C43.1668 49.5449 43.14 49.6774 43.1005 49.8065L25.8243 49.8065C25.8243 48.9341 25.7775 48.1221 25.8243 47.3235C25.8291 47.0876 25.8816 46.8551 25.9787 46.6402C26.0758 46.4253 26.2154 46.2325 26.389 46.0736C26.5625 45.9148 26.7665 45.7931 26.9883 45.7161C27.2102 45.6391 27.4453 45.6083 27.6794 45.6257C28.6069 45.6257 29.5411 45.6257 30.4753 45.6257C30.7016 45.6504 30.9304 45.6237 31.1449 45.5472C31.3595 45.4708 31.5541 45.3466 31.7144 45.1841C31.8746 45.0217 31.9965 44.8249 32.0708 44.6086C32.1451 44.3923 32.17 44.1619 32.1436 43.9346C32.1436 43.2635 32.1436 42.559 32.1436 41.8745C32.1688 40.9764 31.9287 40.0908 31.4536 39.3299C30.9785 38.569 30.2897 37.9669 29.4744 37.5996C27.4763 36.6374 25.7542 35.1803 24.4697 33.3651C24.2699 33.1162 23.9883 32.9472 23.6756 32.8887C18.811 32.0498 15.9616 28.7079 15.9349 23.7487C15.9093 23.095 15.9271 22.4403 15.9883 21.789C16.0509 21.0641 16.3861 20.3906 16.9254 19.9055C17.4648 19.4205 18.1678 19.1605 18.8911 19.1786C20.0121 19.1719 21.1265 19.1853 22.301 19.1853ZM32.1235 32.0095C32.2036 32.0095 32.4038 32.0096 32.4905 31.8888C33.8251 30.4996 35.1597 30.4527 36.5277 31.8888C36.6881 31.9634 36.864 31.998 37.0405 31.9898C37.2171 31.9817 37.3891 31.9309 37.542 31.8417C37.6642 31.7146 37.7578 31.5625 37.8165 31.3958C37.8753 31.229 37.8977 31.0516 37.8823 30.8754C37.8066 30.3525 37.6607 29.8423 37.4486 29.3588C37.3364 29.1196 37.3211 28.8459 37.4057 28.5955C37.4904 28.3451 37.6684 28.1375 37.9023 28.0166C38.1626 27.8421 38.4095 27.6609 38.6564 27.4663C39.1168 27.1106 39.6973 26.7953 39.4371 26.0571C39.1768 25.319 38.5963 25.4331 38.0358 25.4264C36.1807 25.4264 36.1807 25.4263 35.5935 23.6345C35.5935 23.5472 35.5534 23.4332 35.4934 23.3795C35.1597 23.0641 34.8261 22.5608 34.4724 22.5205C34.1187 22.4803 33.6316 23.0171 33.5716 23.3594C33.2646 25.0841 32.3104 25.7351 30.6355 25.4331C30.6052 25.4228 30.5723 25.4228 30.542 25.4331C30.2284 25.6344 29.748 25.7753 29.6412 26.0571C29.5994 26.2393 29.6045 26.4291 29.6558 26.6088C29.7072 26.7884 29.8032 26.9519 29.9348 27.0839C31.6765 27.9563 31.9367 29.1978 31.1426 30.8956C30.8824 31.4593 31.4028 32.0632 32.1235 32.0095ZM22.2676 21.4669C21.7004 21.4669 21.1465 21.4669 20.5927 21.4669C18.0369 21.4669 18.2504 21.0845 18.2304 23.9097C18.1897 24.8651 18.3594 25.8175 18.7274 26.6992C19.0954 27.5809 19.6526 28.3699 20.3591 29.0098C20.9817 29.6639 21.7866 30.1133 22.668 30.2984L22.2676 21.4669ZM46.3769 30.2917C46.8528 30.1016 47.3144 29.8773 47.7582 29.6206C48.9205 28.7934 49.8112 27.6363 50.3163 26.2975C50.8215 24.9587 50.9182 23.4988 50.5943 22.1044C50.5493 21.968 50.4726 21.8445 50.3704 21.7441C50.2682 21.6437 50.1436 21.5694 50.007 21.5274C48.906 21.4737 47.7983 21.5274 46.7773 21.5274C46.6439 24.4935 46.5104 27.3658 46.3769 30.2917Z" fill="white"/>
<path d="M34.3523 56.222L23.0883 56.222C21.9072 56.222 21.8538 56.1615 21.8472 55.0342C21.8472 52.0278 22.2008 51.6788 25.2237 51.6788L44.4084 51.6788C46.2568 51.6788 46.9441 52.3499 46.9508 54.202C46.9508 56.5172 47.0576 56.2152 44.9489 56.2152C41.4323 56.222 37.8956 56.222 34.3523 56.222Z" fill="white"/>
</svg>
