<svg width="23" height="13" viewBox="0 0 23 13" fill="none" xmlns="http://www.w3.org/2000/svg">
<path d="M-7.0419e-07 12.6819L-6.49662e-08 1.19254C1.59638 0.452554 3.33013 0.0552685 5.08943 0.0265217C6.84874 -0.00222503 8.59454 0.338205 10.2142 1.02564C15.555 3.40896 21.3431 1.29261 21.7437 1.12571C22.1442 0.958813 21.9706 11.6337 21.9706 11.6337C18.2858 13.0674 14.2205 13.1923 10.4546 11.9875C4.15246 9.95804 0.761061 12.1077 -7.0419e-07 12.6819Z" fill="#06D611"/>
<path d="M0.567483 11.6067L0.520752 1.68628C3.61297 0.450356 7.06197 0.450357 10.1542 1.68629C15.1678 3.79589 20.8358 2.12018 21.1829 1.97331C21.5301 1.82644 21.3498 11.1394 21.3498 11.1394C17.8176 12.4366 13.9462 12.4766 10.3878 11.2529C4.49296 9.33684 1.28181 11.0993 0.567483 11.6067Z" fill="white"/>
<path d="M1.88263 9.69745C1.62226 9.47047 1.16162 9.69745 1.16162 9.69745L1.16162 2.82116C1.3077 2.85167 1.45905 2.84564 1.60228 2.80372C1.7455 2.7618 1.87619 2.68521 1.98277 2.58075C2.10174 2.47645 2.1798 2.33338 2.20304 2.17687C2.22627 2.02036 2.19316 1.86074 2.10961 1.72637C2.10961 1.72637 6.72271 0.738171 9.98726 2.23359C13.9061 4.0361 19.5473 3.01479 19.5473 3.01479C19.5575 3.16318 19.6036 3.30679 19.6815 3.43351C19.7594 3.56023 19.8668 3.66619 19.9946 3.74237C20.1239 3.79263 20.2626 3.81402 20.401 3.80479C20.5395 3.79556 20.6742 3.75605 20.7957 3.68907L20.7957 9.89108C20.631 9.88043 20.4659 9.90389 20.3108 9.96019C20.1557 10.0165 20.0139 10.1044 19.8944 10.2182C19.5873 10.5587 19.8944 11.0326 19.8944 11.0326C16.7 11.8036 13.3511 11.639 10.2476 10.5587C7.62036 9.55402 4.72975 9.47156 2.04953 10.325C2.07272 10.2146 2.06971 10.1003 2.04072 9.99132C2.01173 9.88233 1.95759 9.78171 1.88263 9.69745V9.69745Z" fill="#06D611"/>
<path d="M13.7457 6.96686C13.6456 6.77148 13.495 6.60656 13.3095 6.48915C13.124 6.37174 12.9104 6.30613 12.6909 6.29927C12.2637 6.23918 11.8364 6.25262 11.4091 6.21924L11.3157 6.21924C11.3157 5.51158 11.2623 4.79713 11.2155 4.08948L11.4959 4.08948C11.6271 4.08239 11.7586 4.08239 11.8898 4.08948L12.1035 4.21645C12.2303 4.28321 12.3571 4.34316 12.484 4.41659L12.6175 4.49678L12.6709 4.49678C12.7006 4.5038 12.7316 4.50178 12.7602 4.49108C12.7887 4.48038 12.8134 4.46142 12.8311 4.43664L12.9513 4.52351L12.8512 4.39671C12.858 4.37271 12.858 4.3472 12.8512 4.3232C12.8512 4.28315 12.8111 4.26304 12.7777 4.24301C12.7443 4.22298 12.7777 4.24301 12.7777 4.24301C12.7143 4.19761 12.6473 4.15746 12.5774 4.12289C12.4613 4.04143 12.3385 3.96992 12.2103 3.90921C11.8917 3.75397 11.5432 3.66978 11.1888 3.66229C11.2055 3.48911 11.2055 3.31472 11.1888 3.14154C11.179 3.11413 11.1619 3.08986 11.1393 3.07146C11.1167 3.05305 11.0895 3.04119 11.0607 3.03707C11.0319 3.03295 11.0025 3.0368 10.9756 3.04815C10.9488 3.0595 10.9256 3.07789 10.9085 3.10145C10.9085 3.10145 10.9085 3.10145 10.9085 3.10145C10.815 3.10145 10.8283 3.20158 10.835 3.26166C10.8417 3.32175 10.835 3.39522 10.835 3.46197L10.795 3.67565L10.6481 3.67565C10.1467 3.75248 9.69449 4.02036 9.38633 4.42328C9.20858 4.61746 9.0922 4.85991 9.05181 5.12005C9.01142 5.38018 9.04884 5.64651 9.15935 5.88544C9.42639 6.31938 10.074 6.39941 10.5546 6.47285L10.6281 6.47285C10.6281 6.58634 10.6281 6.69315 10.6281 6.79996C10.6281 7.31401 10.7215 7.81473 10.795 8.32211C10.8028 8.38716 10.814 8.4518 10.8283 8.51574L10.5079 8.51574L10.321 8.51574C10.23 8.42377 10.1093 8.36702 9.98049 8.35552C9.6404 8.32213 9.30969 8.22477 9.0058 8.0685L8.82555 7.96826C8.80607 7.96165 8.78494 7.96165 8.76546 7.96826C8.73734 7.9586 8.7068 7.9586 8.67868 7.96826L8.56519 7.85482L8.64529 7.98831C8.6208 8.00989 8.60239 8.03759 8.59188 8.0685V8.0685C8.59188 8.18199 8.7254 8.22862 8.80552 8.30206C8.87563 8.36292 8.95167 8.41659 9.0325 8.46228C9.28974 8.61441 9.57251 8.71845 9.867 8.76934C9.99583 8.80849 10.1275 8.8376 10.2609 8.85622C10.4828 8.87996 10.7066 8.87996 10.9285 8.85622C11.0086 9.16331 11.1021 9.46364 11.1955 9.76406C11.2194 9.91379 11.274 10.0571 11.3557 10.1847C11.3829 10.2093 11.4154 10.2273 11.4506 10.2374C11.4859 10.2475 11.5229 10.2494 11.559 10.2429C11.5951 10.2365 11.6292 10.2219 11.6588 10.2002C11.6883 10.1786 11.7126 10.1504 11.7296 10.1179C11.7597 10.0429 11.7597 9.95933 11.7296 9.88434C11.6895 9.75082 11.6495 9.61723 11.6161 9.47704C11.5827 9.33684 11.5226 9.02307 11.4759 8.80944L11.556 8.80944C12.2629 8.72578 12.9293 8.4355 13.472 7.97494C13.6284 7.82858 13.7297 7.63292 13.7591 7.42078C13.789 7.2704 13.7844 7.11523 13.7457 6.96686V6.96686ZM10.7549 4.34993C10.7549 4.77719 10.7549 5.20441 10.7148 5.63167C10.7148 5.81192 10.7148 5.9922 10.7148 6.16578C10.3254 6.16255 9.94604 6.04151 9.62666 5.81861C9.53743 5.67783 9.50409 5.50877 9.5332 5.34465C9.61597 5.06322 9.75955 4.80332 9.95378 4.58349C10.1942 4.39983 10.4688 4.26603 10.7616 4.18972C10.7561 4.24294 10.7539 4.29644 10.7549 4.34993V4.34993ZM13.2317 7.79468C13.1046 7.939 12.9503 8.05697 12.7777 8.14184C12.5079 8.29171 12.2178 8.40188 11.9165 8.46896C11.7363 8.50901 11.5894 8.54249 11.4492 8.56251C11.3958 8.21536 11.3691 7.69464 11.3491 7.22732L11.3491 6.65311C11.6028 6.65311 11.8631 6.65315 12.1235 6.69321C12.3849 6.69252 12.6453 6.72613 12.8979 6.79328C12.9707 6.80527 13.0408 6.83021 13.1048 6.86679L13.1716 6.90672L13.2651 6.98691L13.3051 7.04037C13.3435 7.09568 13.3666 7.1602 13.3719 7.22732C13.3974 7.33037 13.3981 7.4379 13.3737 7.54123C13.3493 7.64457 13.3006 7.74065 13.2317 7.82141L13.2317 7.79468Z" fill="white"/>
</svg>
