<svg id="Camada_1" data-name="Camada 1" xmlns="http://www.w3.org/2000/svg" viewBox="0 0 65.13 108.57"><defs><style>.cls-1{fill:#3f3f3f;}.cls-2{fill:#ffb600;}.cls-3{fill:#dbad1b;}.cls-4{fill:#b28a1b;}.cls-5{fill:#232323;fill-rule:evenodd;}.cls-6{fill:#1c0f01;stroke:#000;stroke-miterlimit:10;stroke-width:0.25px;}</style></defs><polygon class="cls-1" points="61.45 106.6 61.45 39.69 32.61 23.1 32.61 90.1 61.45 106.6"/><polygon class="cls-1" points="32.66 90.16 32.66 23.25 3.81 6.66 3.81 73.66 32.66 90.16"/><polygon class="cls-2" points="34.69 62.39 40.57 65.53 40.57 64.15 34.69 61.01 34.69 62.39"/><polygon class="cls-3" points="36.08 59.79 34.67 61.03 35.53 61.46 36.89 60.17 36.08 59.79"/><polygon class="cls-4" points="36.89 61.89 36.89 60.17 35.55 61.44 36.89 61.89"/><polygon class="cls-4" points="41.17 65.03 41.17 63.51 40.57 64.15 40.57 65.53 41.17 65.03"/><polyline class="cls-3" points="37 62.24 35.53 61.46 36.15 60.88 41.17 63.53 40.57 64.15 37 62.24"/><polygon class="cls-5" points="65.13 108.57 65.13 37.51 0 0 0 71.65 3.81 73.66 3.81 73.66 3.81 6.66 61.5 39.78 61.5 106.69 65.13 108.57"/><polygon class="cls-2" points="23.93 56.36 28.97 59.05 28.97 57.67 23.93 54.98 23.93 56.36"/><polygon class="cls-3" points="29.43 56.09 28.31 57.06 29.17 57.49 30.22 56.5 29.43 56.09"/><polygon class="cls-4" points="30.22 58.01 30.22 56.5 28.97 57.67 28.97 59.05 30.22 58.01"/><polyline class="cls-3" points="25.4 55.76 23.93 54.98 24.55 54.4 29.57 57.04 28.97 57.67 25.4 55.76"/><line class="cls-6" x1="32.61" y1="23.1" x2="32.61" y2="90.16"/></svg>