<svg width="48" height="47" viewBox="0 0 48 47" fill="none" xmlns="http://www.w3.org/2000/svg">
<path d="M38.4525 0H10.4274C5.18762 0 0.939941 4.24768 0.939941 9.48745V37.5125C0.939941 42.7523 5.18762 47 10.4274 47H38.4525C43.6923 47 47.9399 42.7523 47.9399 37.5125V9.48745C47.9399 4.24768 43.6923 0 38.4525 0Z" fill="#C72A3B"/>
<g opacity="0.5">
<path opacity="0.5" d="M34.3648 11.4883H30.3896C30.2637 11.4883 30.2571 11.4883 30.2107 11.422C29.98 11.1653 29.6981 10.9596 29.3832 10.8181C29.0683 10.6766 28.7273 10.6025 28.3821 10.6005H27.9846C27.7905 10.6134 27.5957 10.6134 27.4016 10.6005C27.2051 10.3342 26.9499 10.1167 26.6557 9.96507C26.3616 9.8134 26.0364 9.73158 25.7055 9.72595V9.72595C25.3683 9.73284 25.0368 9.81494 24.7354 9.96623C24.4339 10.1175 24.1701 10.3342 23.963 10.6005C23.7908 10.6005 23.6185 10.6005 23.4463 10.6005C23.274 10.6005 22.9162 10.6005 22.6512 10.6402C22.0766 10.7133 21.5474 10.9909 21.1605 11.422C21.1265 11.4504 21.0852 11.4688 21.0413 11.475H16.9733C16.3606 11.4327 15.7534 11.6152 15.2655 11.9884C14.7777 12.3616 14.4426 12.8999 14.3232 13.5024V13.5024L14.2834 13.5819V36.6314C14.4196 37.3077 14.8142 37.9043 15.3832 38.2943C15.6068 38.4239 15.8419 38.5326 16.0855 38.619L16.3704 38.7316H34.9213L35.1068 38.672L35.4315 38.566C35.927 38.3826 36.353 38.0491 36.6499 37.612C36.9468 37.175 37.0999 36.6561 37.0878 36.1278V14.2378C37.1173 13.8715 37.0674 13.5031 36.9414 13.1579C36.8154 12.8127 36.6163 12.4988 36.3577 12.2377C36.0991 11.9766 35.7871 11.7745 35.4432 11.6451C35.0992 11.5158 34.7313 11.4623 34.3648 11.4883ZM20.498 14.9003C20.4935 15.0111 20.513 15.1216 20.5552 15.2242C20.5974 15.3267 20.6612 15.4189 20.7424 15.4945C20.8236 15.57 20.9202 15.627 21.0255 15.6617C21.1309 15.6964 21.2425 15.7079 21.3527 15.6954H29.9656C30.6281 15.6954 30.9064 15.4038 30.9064 14.7546V13.032H34.4509C34.6018 13.0149 34.7546 13.0322 34.8978 13.0826C35.0411 13.1329 35.1711 13.215 35.2782 13.3227C35.3852 13.4304 35.4665 13.5609 35.516 13.7044C35.5655 13.848 35.5819 14.0009 35.564 14.1517V36.0815C35.5825 36.235 35.5656 36.3907 35.5147 36.5367C35.4638 36.6827 35.3801 36.8151 35.2702 36.9238C35.1602 37.0325 35.0268 37.1146 34.8802 37.1638C34.7336 37.2131 34.5777 37.2281 34.4244 37.2078H16.9733C16.82 37.2281 16.6641 37.2131 16.5175 37.1638C16.3709 37.1146 16.2376 37.0325 16.1276 36.9238C16.0176 36.8151 15.9339 36.6827 15.883 36.5367C15.8321 36.3907 15.8152 36.235 15.8338 36.0815V14.1583C15.8156 14.0069 15.8321 13.8533 15.882 13.7092C15.9318 13.5651 16.0138 13.4342 16.1216 13.3264C16.2294 13.2186 16.3603 13.1367 16.5044 13.0868C16.6485 13.037 16.802 13.0205 16.9535 13.0386H20.4914V13.35C20.4914 13.8734 20.4914 14.3835 20.498 14.9003ZM22.0417 14.0059C22.0417 13.6879 22.0417 13.3434 22.0417 13.0519C22.063 12.8086 22.1736 12.5819 22.3523 12.4155C22.5309 12.2491 22.7649 12.1548 23.009 12.1508C23.4529 12.1508 23.9034 12.1508 24.3341 12.1508C24.5074 12.1591 24.6791 12.1132 24.8252 12.0194C24.9712 11.9256 25.0844 11.7886 25.149 11.6274C25.1825 11.5198 25.2508 11.4263 25.3431 11.3616C25.4354 11.2969 25.5465 11.2645 25.6591 11.2697V11.2697C25.7709 11.2649 25.881 11.2975 25.9722 11.3623C26.0634 11.427 26.1304 11.5203 26.1626 11.6274C26.2264 11.7891 26.3394 11.9267 26.4856 12.0207C26.6319 12.1146 26.804 12.1601 26.9776 12.1508C27.4192 12.1508 27.8609 12.1508 28.3026 12.1508C28.4379 12.1481 28.5724 12.1728 28.6978 12.2235C28.8233 12.2743 28.9372 12.3499 29.0325 12.4459C29.1279 12.5419 29.2028 12.6563 29.2527 12.7821C29.3027 12.9079 29.3265 13.0425 29.3229 13.1777C29.3229 13.4693 29.3229 13.7608 29.3229 14.0589V14.1318H22.0351L22.0417 14.0059Z" fill="black"/>
<path opacity="0.5" d="M24.6984 21.4528C24.8019 21.4636 24.9063 21.4636 25.0098 21.4528H32.2976C32.3571 21.4591 32.4171 21.4591 32.4765 21.4528C32.6615 21.4299 32.8315 21.3395 32.9538 21.1988C33.0761 21.0581 33.1421 20.8772 33.1391 20.6909C33.1436 20.5041 33.0781 20.3224 32.9556 20.1814C32.833 20.0404 32.6621 19.9504 32.4765 19.929C32.3642 19.918 32.251 19.918 32.1386 19.929H24.97C24.8799 19.9162 24.7885 19.9162 24.6984 19.929C24.5128 19.9504 24.3419 20.0404 24.2194 20.1814C24.0968 20.3224 24.0313 20.5041 24.0359 20.6909C24.0328 20.8772 24.0988 21.0581 24.2211 21.1988C24.3434 21.3395 24.5134 21.4299 24.6984 21.4528Z" fill="black"/>
<path opacity="0.5" d="M24.7516 26.3356H32.2714C32.3506 26.3446 32.4306 26.3446 32.5099 26.3356C32.6807 26.2962 32.833 26.2 32.9421 26.0629C33.0512 25.9257 33.1106 25.7556 33.1106 25.5803C33.1106 25.4051 33.0512 25.235 32.9421 25.0978C32.833 24.9606 32.6807 24.8645 32.5099 24.825C32.3931 24.8142 32.2755 24.8142 32.1587 24.825H24.7516C24.5577 24.8417 24.3772 24.9306 24.2459 25.0742C24.1145 25.2178 24.042 25.4056 24.0427 25.6002C24.0488 25.7888 24.1247 25.9684 24.2557 26.1043C24.3867 26.2402 24.5634 26.3226 24.7516 26.3356V26.3356Z" fill="black"/>
<path opacity="0.5" d="M24.7515 31.2185H32.2713C32.3352 31.2249 32.3995 31.2249 32.4634 31.2185C32.6484 31.1956 32.8184 31.1052 32.9407 30.9645C33.063 30.8239 33.129 30.643 33.1259 30.4566C33.1305 30.2698 33.065 30.0881 32.9425 29.9471C32.8199 29.8062 32.649 29.7161 32.4634 29.6947C32.3623 29.6806 32.2598 29.6806 32.1587 29.6947H24.7515C24.5559 29.7099 24.3735 29.7993 24.2417 29.9447C24.1099 30.09 24.0387 30.2803 24.0426 30.4765C24.05 30.6653 24.1262 30.845 24.2567 30.9816C24.3873 31.1183 24.5632 31.2025 24.7515 31.2185V31.2185Z" fill="black"/>
<path opacity="0.5" d="M20.3192 20.8631L19.6567 20.2006C19.5886 20.1169 19.504 20.0481 19.4081 19.9987C19.3123 19.9493 19.2072 19.9202 19.0995 19.9134C18.9919 19.9065 18.884 19.9221 18.7826 19.9589C18.6812 19.9958 18.5886 20.0533 18.5105 20.1277C18.4365 20.195 18.3771 20.2768 18.3361 20.3679C18.2951 20.4591 18.2732 20.5578 18.272 20.6578C18.2726 20.7829 18.2994 20.9065 18.3507 21.0207C18.4021 21.1348 18.4768 21.2369 18.5701 21.3203C18.9544 21.7178 19.3519 22.1087 19.7428 22.4996C19.9041 22.6813 20.1299 22.793 20.3722 22.811C20.4983 22.8051 20.622 22.774 20.7358 22.7193C20.8496 22.6647 20.9513 22.5877 21.0347 22.493L22.6646 20.8631L23.0886 20.4391C23.1429 20.3826 23.1937 20.3228 23.241 20.2602C23.3501 20.1103 23.4002 19.9256 23.3819 19.7411C23.3636 19.5566 23.278 19.3853 23.1416 19.2598C23.0168 19.1213 22.8441 19.0354 22.6584 19.0194C22.4726 19.0034 22.2878 19.0586 22.1412 19.1737C22.0502 19.2406 21.9659 19.316 21.8894 19.3989L20.3656 20.9294L20.3192 20.8631Z" fill="black"/>
<path opacity="0.5" d="M22.6978 23.9306C22.5671 23.9281 22.4372 23.9514 22.3156 23.9991C22.1939 24.0469 22.0829 24.1182 21.9888 24.2089C21.5317 24.6461 21.0878 25.0967 20.624 25.5339L20.3723 25.7857L20.3259 25.7393C20.1073 25.5074 19.8952 25.2888 19.6634 25.0768C19.58 24.9829 19.4781 24.9074 19.3641 24.8549C19.25 24.8025 19.1263 24.7742 19.0008 24.772V24.772C18.9014 24.7728 18.8032 24.7938 18.7121 24.8337C18.621 24.8735 18.5389 24.9314 18.4708 25.0039C18.3923 25.0828 18.3316 25.1775 18.2926 25.2817C18.2537 25.3859 18.2374 25.4972 18.245 25.6083C18.2525 25.7193 18.2836 25.8274 18.3363 25.9254C18.3889 26.0234 18.4619 26.109 18.5503 26.1766L19.723 27.3493C19.8012 27.4396 19.8965 27.5136 20.0033 27.5671C20.1102 27.6205 20.2266 27.6523 20.3458 27.6607C20.5885 27.6441 20.8147 27.5321 20.9752 27.3493L22.0551 26.2693L22.5454 25.7791C22.7375 25.5869 22.9363 25.4014 23.1152 25.2027C23.2189 25.0921 23.2895 24.9545 23.3188 24.8057C23.348 24.6569 23.3349 24.5029 23.2808 24.3612C23.232 24.2432 23.1519 24.1408 23.0491 24.0649C22.9464 23.989 22.8249 23.9426 22.6978 23.9306V23.9306Z" fill="black"/>
<path opacity="0.5" d="M22.234 28.8864C22.1235 28.9565 22.0213 29.0387 21.9292 29.1315L20.3789 30.6885L20.3193 30.6289C20.1006 30.4036 19.8886 30.185 19.6567 29.9663C19.5736 29.8727 19.4715 29.7978 19.3574 29.7464C19.2432 29.695 19.1194 29.6683 18.9942 29.6682C18.8952 29.6696 18.7976 29.6915 18.7075 29.7325C18.6174 29.7736 18.5368 29.8329 18.4708 29.9067C18.3964 29.9848 18.3389 30.0774 18.302 30.1788C18.2651 30.2802 18.2496 30.3881 18.2565 30.4957C18.2633 30.6034 18.2924 30.7085 18.3418 30.8043C18.3912 30.9002 18.46 30.9848 18.5437 31.0529L19.7362 32.2521C19.8153 32.3403 19.9111 32.412 20.0179 32.4631C20.1248 32.5143 20.2407 32.5439 20.359 32.5502C20.4754 32.5436 20.5892 32.5138 20.6939 32.4626C20.7985 32.4115 20.8919 32.3399 20.9685 32.2521L22.9031 30.3175L23.0621 30.1585C23.1379 30.0842 23.2026 29.9994 23.2543 29.9067C23.3286 29.761 23.3544 29.5953 23.3281 29.4339C23.3017 29.2724 23.2245 29.1236 23.1078 29.009C22.991 28.8945 22.8407 28.8202 22.6788 28.7969C22.5169 28.7737 22.3518 28.8027 22.2075 28.8798L22.234 28.8864Z" fill="black"/>
</g>
<path d="M33.5233 10.6005H29.5481C29.4156 10.6005 29.409 10.6005 29.3626 10.5343C29.1319 10.2757 28.8491 10.0689 28.5328 9.92727C28.2166 9.78568 27.8739 9.71257 27.5274 9.71274H27.1299C26.9357 9.72583 26.741 9.72583 26.5468 9.71274C26.3504 9.44642 26.0951 9.22899 25.801 9.07732C25.5068 8.92564 25.1817 8.84382 24.8508 8.8382V8.8382C24.513 8.84588 24.1812 8.92899 23.8797 9.08146C23.5783 9.23392 23.3147 9.45187 23.1083 9.71936C22.936 9.71936 22.7638 9.71936 22.5915 9.71936C22.4193 9.71936 22.0615 9.71936 21.7965 9.75249C21.2196 9.82923 20.6889 10.1087 20.2992 10.5409C20.2675 10.5691 20.2284 10.5875 20.1865 10.5939H16.1252C15.5127 10.553 14.9063 10.7361 14.4188 11.109C13.9312 11.482 13.5958 12.0194 13.4751 12.6213V12.6213L13.4287 12.7008V35.6575V35.7436C13.5616 36.4178 13.9512 37.0141 14.5153 37.4066C14.7266 37.5332 14.9482 37.6418 15.1778 37.7312L15.4693 37.8438L34.0202 37.877L34.2057 37.8173L34.5303 37.7113C35.0252 37.5277 35.4503 37.194 35.7461 36.7568C36.042 36.3196 36.1937 35.8009 36.18 35.2732C36.18 33.1597 36.18 31.0529 36.18 28.9394V13.35C36.2086 12.9896 36.1602 12.6273 36.038 12.287C35.9159 11.9467 35.7228 11.6363 35.4716 11.3763C35.2204 11.1163 34.9167 10.9127 34.5808 10.7789C34.245 10.6452 33.8845 10.5844 33.5233 10.6005ZM19.6499 14.0126C19.6465 14.1231 19.6667 14.233 19.7093 14.3351C19.7519 14.4371 19.8158 14.5288 19.8967 14.6041C19.9777 14.6794 20.0738 14.7365 20.1786 14.7716C20.2834 14.8067 20.3946 14.819 20.5045 14.8076H29.1175C29.78 14.8076 30.0583 14.5227 30.0583 13.8734V12.1509H33.6028C33.7529 12.1322 33.9052 12.1476 34.0485 12.1958C34.1918 12.2441 34.3224 12.324 34.4306 12.4297C34.5388 12.5353 34.6219 12.664 34.6735 12.8061C34.7252 12.9483 34.7442 13.1002 34.7291 13.2507V35.1805C34.7476 35.334 34.7308 35.4897 34.6799 35.6357C34.6289 35.7817 34.5453 35.9141 34.4353 36.0228C34.3253 36.1315 34.1919 36.2136 34.0453 36.2628C33.8987 36.3121 33.7428 36.3271 33.5895 36.3068H16.1318C15.9785 36.3271 15.8226 36.3121 15.676 36.2628C15.5295 36.2136 15.3961 36.1315 15.2861 36.0228C15.1761 35.9141 15.0925 35.7817 15.0415 35.6357C14.9906 35.4897 14.9738 35.334 14.9923 35.1805V13.2507C14.9743 13.0999 14.9907 12.947 15.0402 12.8034C15.0897 12.6599 15.171 12.5294 15.2781 12.4217C15.3851 12.314 15.5151 12.2319 15.6584 12.1816C15.8017 12.1312 15.9545 12.1139 16.1053 12.131H19.6499V13.9927V14.0126ZM21.2002 13.1181C21.2002 12.8001 21.2002 12.4556 21.2002 12.1641C21.2195 11.9248 21.3259 11.7009 21.4994 11.5348C21.6728 11.3687 21.9011 11.272 22.141 11.2631C22.5915 11.2631 23.042 11.2631 23.4661 11.2631C23.6395 11.2714 23.8111 11.2254 23.9572 11.1316C24.1032 11.0378 24.2164 10.9008 24.281 10.7397C24.3145 10.632 24.3828 10.5386 24.4751 10.4738C24.5674 10.4091 24.6785 10.3768 24.7911 10.3819V10.3819C24.9037 10.3768 25.0149 10.4091 25.1072 10.4738C25.1995 10.5386 25.2677 10.632 25.3013 10.7397C25.3681 10.9131 25.4913 11.0591 25.6512 11.154C25.811 11.249 25.9981 11.2874 26.1824 11.2631V11.2631C26.6241 11.2631 27.0658 11.2631 27.5075 11.2631C27.6434 11.2594 27.7785 11.2835 27.9048 11.3338C28.031 11.3841 28.1457 11.4596 28.2418 11.5557C28.3379 11.6518 28.4134 11.7665 28.4637 11.8927C28.514 12.019 28.5381 12.1541 28.5344 12.29V13.2507H21.2466L21.2002 13.1181Z" fill="white"/>
<path d="M23.8568 20.5385C23.9583 20.5459 24.0602 20.5459 24.1616 20.5385H31.4163C31.4758 20.5446 31.5357 20.5446 31.5952 20.5385C31.78 20.5141 31.9496 20.4233 32.0725 20.2832C32.1953 20.143 32.2631 19.963 32.2631 19.7766C32.2631 19.5902 32.1953 19.4101 32.0725 19.27C31.9496 19.1298 31.78 19.0391 31.5952 19.0147C31.483 19.0002 31.3695 19.0002 31.2573 19.0147H24.1285C24.0384 19.0019 23.9469 19.0019 23.8568 19.0147C23.6713 19.0361 23.5004 19.1261 23.3778 19.2671C23.2552 19.4081 23.1898 19.5898 23.1943 19.7766C23.1913 19.9629 23.2572 20.1438 23.3796 20.2845C23.5019 20.4252 23.6719 20.5156 23.8568 20.5385Z" fill="white"/>
<path d="M23.9099 25.4478H31.4164C31.4956 25.4572 31.5757 25.4572 31.6549 25.4478C31.8291 25.4136 31.9856 25.3192 32.0971 25.1811C32.2085 25.043 32.2678 24.87 32.2645 24.6926C32.2662 24.5145 32.2055 24.3415 32.093 24.2035C31.9804 24.0655 31.8231 23.9713 31.6483 23.9373C31.5315 23.9266 31.414 23.9266 31.2972 23.9373H23.9033C23.6995 23.9373 23.504 24.0182 23.3599 24.1624C23.2157 24.3065 23.1348 24.502 23.1348 24.7058C23.1348 24.9096 23.2157 25.1051 23.3599 25.2492C23.504 25.3934 23.6995 25.4743 23.9033 25.4743L23.9099 25.4478Z" fill="white"/>
<path d="M23.91 30.3307H31.4165H31.6086C31.7936 30.3078 31.9636 30.2174 32.0859 30.0767C32.2082 29.9361 32.2742 29.7552 32.2712 29.5688C32.2757 29.382 32.2103 29.2003 32.0877 29.0593C31.9651 28.9184 31.7942 28.8283 31.6086 28.8069C31.5053 28.7929 31.4006 28.7929 31.2972 28.8069H24.1287C24.0604 28.8002 23.9916 28.8002 23.9233 28.8069C23.7299 28.8219 23.5495 28.9095 23.418 29.052C23.2865 29.1946 23.2138 29.3815 23.2144 29.5754C23.2182 29.7645 23.2911 29.9457 23.4192 30.0848C23.5473 30.2239 23.7219 30.3114 23.91 30.3307V30.3307Z" fill="white"/>
<path d="M19.4908 19.9754C19.2722 19.7501 19.0602 19.5315 18.8283 19.3128C18.7603 19.2291 18.6757 19.1604 18.5798 19.1109C18.4839 19.0615 18.3788 19.0325 18.2712 19.0256C18.1635 19.0188 18.0556 19.0343 17.9542 19.0712C17.8529 19.1081 17.7602 19.1655 17.6821 19.24C17.6089 19.3064 17.5501 19.3871 17.5091 19.4771C17.468 19.5671 17.4458 19.6645 17.4436 19.7634C17.4429 19.8881 17.4686 20.0115 17.5188 20.1257C17.569 20.2398 17.6427 20.3421 17.7351 20.4259C18.126 20.8234 18.5235 21.2143 18.9144 21.6052C19.0749 21.788 19.3011 21.9 19.5438 21.9166C19.67 21.9107 19.7936 21.8796 19.9074 21.8249C20.0213 21.7703 20.1229 21.6933 20.2064 21.5986L21.8362 19.9687L22.2602 19.5381C22.3161 19.4853 22.3671 19.4277 22.4126 19.3658C22.5231 19.2165 22.5742 19.0314 22.5558 18.8465C22.5374 18.6616 22.451 18.4901 22.3132 18.3654C22.1879 18.2362 22.0196 18.1574 21.8401 18.144C21.6606 18.1305 21.4824 18.1834 21.3393 18.2925C21.2484 18.3594 21.1641 18.4348 21.0875 18.5178L19.5637 20.0482L19.4908 19.9754Z" fill="white"/>
<path d="M21.856 23.0429C21.5905 23.0396 21.3341 23.1394 21.1405 23.3211C20.69 23.7584 20.2395 24.2089 19.7757 24.6462L19.5305 24.898L19.4908 24.8781L18.8283 24.2155C18.7449 24.1217 18.643 24.0462 18.5289 23.9937C18.4149 23.9412 18.2912 23.913 18.1657 23.9108V23.9108C18.0674 23.9121 17.9703 23.9333 17.8803 23.9732C17.7904 24.013 17.7094 24.0707 17.6423 24.1427C17.5646 24.221 17.5043 24.3149 17.4655 24.4182C17.4267 24.5215 17.4102 24.6319 17.417 24.7421C17.4239 24.8522 17.4541 24.9596 17.5055 25.0573C17.5568 25.155 17.6283 25.2407 17.7152 25.3087C18.1061 25.7062 18.497 26.0971 18.8945 26.488C18.9727 26.5784 19.068 26.6524 19.1749 26.7058C19.2817 26.7593 19.3981 26.7911 19.5173 26.7994C19.6379 26.7952 19.7565 26.7666 19.8658 26.7154C19.9751 26.6642 20.0729 26.5913 20.1533 26.5013L21.2399 25.4214L21.7301 24.9311C21.9223 24.7389 22.1144 24.5534 22.2999 24.3547C22.4031 24.2424 22.4728 24.1033 22.5009 23.9534C22.529 23.8035 22.5145 23.6487 22.4589 23.5066C22.4182 23.3768 22.3385 23.2626 22.2307 23.1796C22.1228 23.0966 21.992 23.0489 21.856 23.0429V23.0429Z" fill="white"/>
<path d="M21.3923 27.9986C21.2806 28.0669 21.1782 28.1493 21.0875 28.2437L19.5305 29.8139L19.4908 29.7411L18.8283 29.0785C18.7448 28.9852 18.6427 28.9105 18.5286 28.8592C18.4145 28.8078 18.2909 28.781 18.1657 28.7804C18.0659 28.7824 17.9675 28.8046 17.8764 28.8456C17.7853 28.8866 17.7034 28.9455 17.6357 29.0189C17.5622 29.0974 17.5055 29.1902 17.4692 29.2915C17.4328 29.3927 17.4176 29.5004 17.4244 29.6077C17.4313 29.7151 17.46 29.82 17.5089 29.9158C17.5577 30.0117 17.6257 30.0965 17.7086 30.1651C18.1061 30.5626 18.5036 30.9667 18.9078 31.3576C18.9856 31.4479 19.0809 31.5215 19.1879 31.5739C19.295 31.6262 19.4115 31.6564 19.5305 31.6624C19.6461 31.6565 19.7591 31.6269 19.8628 31.5757C19.9665 31.5244 20.0586 31.4524 20.1334 31.3643L22.0747 29.4297L22.2337 29.2707C22.3075 29.1947 22.3721 29.1102 22.4258 29.0189C22.5042 28.8737 22.5325 28.7066 22.5061 28.5436C22.4798 28.3806 22.4003 28.231 22.28 28.1179C22.1677 27.9999 22.0185 27.9238 21.8571 27.9021C21.6957 27.8804 21.5317 27.9145 21.3923 27.9986Z" fill="white"/>
</svg>
