<svg id="Camada_1" data-name="Camada 1" xmlns="http://www.w3.org/2000/svg" viewBox="0 0 24.38 114.94"><defs><style>.cls-1{fill:#f4f4f4;}.cls-2{fill:#80d1cf;}</style></defs><path class="cls-1" d="M23,102.8,2.58,114.7A1.72,1.72,0,0,1,0,113.22V14.76a2.76,2.76,0,0,1,1.38-2.39L22.27.19a1.41,1.41,0,0,1,2.11,1.22v99A2.77,2.77,0,0,1,23,102.8Z"/><path class="cls-2" d="M20.79,101.49l-16,9.29a1.71,1.71,0,0,1-2.57-1.49V16.07a2.77,2.77,0,0,1,1.38-2.4L20.05,4.12a1.41,1.41,0,0,1,2.12,1.21V99.09A2.78,2.78,0,0,1,20.79,101.49Z"/></svg>