<svg id="Camada_1" data-name="Camada 1" xmlns="http://www.w3.org/2000/svg" viewBox="0 0 19.75 93.09"><defs><style>.cls-1{fill:#f4f4f4;}.cls-2{fill:#80d1cf;}</style></defs><path class="cls-1" d="M18.63,83.26,2.09,92.9A1.39,1.39,0,0,1,0,91.7V12A2.23,2.23,0,0,1,1.12,10L18,.16a1.14,1.14,0,0,1,1.72,1V81.32A2.25,2.25,0,0,1,18.63,83.26Z"/><path class="cls-2" d="M16.83,82.2,3.88,89.72a1.39,1.39,0,0,1-2.09-1.2V13a2.28,2.28,0,0,1,1.12-1.95L16.24,3.33a1.14,1.14,0,0,1,1.71,1V80.26A2.23,2.23,0,0,1,16.83,82.2Z"/></svg>