<svg id="Camada_1" data-name="Camada 1" xmlns="http://www.w3.org/2000/svg" viewBox="0 0 24.38 46.42"><defs><style>.cls-1{fill:#f4f4f4;}.cls-2{fill:#80d1cf;}</style></defs><path class="cls-1" d="M23,34.28,2.58,46.19A1.72,1.72,0,0,1,0,44.71V14.76a2.76,2.76,0,0,1,1.38-2.39L22.27.19a1.41,1.41,0,0,1,2.11,1.22V31.89A2.75,2.75,0,0,1,23,34.28Z"/><path class="cls-2" d="M20.79,33l-16,9.29a1.72,1.72,0,0,1-2.57-1.49V16.07a2.77,2.77,0,0,1,1.38-2.4L20.05,4.12a1.41,1.41,0,0,1,2.12,1.21V30.58A2.79,2.79,0,0,1,20.79,33Z"/></svg>