<svg id="Camada_1" data-name="Camada 1" xmlns="http://www.w3.org/2000/svg" viewBox="0 0 307.53 279.34"><defs><style>.cls-1{fill:#f0f0f1;}.cls-1,.cls-2,.cls-3{fill-rule:evenodd;}.cls-2{fill:#ebebeb;}.cls-3{fill:#fff;}</style></defs><path class="cls-1" d="M5.74,197.35l24,13.87h0L112.45,259l29.83,17.22a22.43,22.43,0,0,0,22.95,0l136.56-78.83a11.22,11.22,0,0,0,5.74-9.94V91.94H0v95.47H0A11.22,11.22,0,0,0,5.74,197.35Z"/><path class="cls-2" d="M213.55,247.75l87.3-50.4a11.22,11.22,0,0,0,5.74-9.94V91.94H143.28c7.56,50.72,9.55,91.93,9.55,91.93v95.47a22.82,22.82,0,0,0,11.47-3.16Z"/><path class="cls-3" d="M5.74,101.88l136.54,78.83a22.43,22.43,0,0,0,22.95,0l136.56-78.83a11.49,11.49,0,0,0,0-19.89L165.24,3.16a22.43,22.43,0,0,0-23,0L5.74,82a11.48,11.48,0,0,0,0,19.88Z"/></svg>