<svg width="26" height="18" viewBox="0 0 26 18" fill="none" xmlns="http://www.w3.org/2000/svg">
<path d="M0.363037 10.329V11.2907L3.72594 12.925L7.61345 13.7725L12.5838 13.295L16.1889 11.9498L16.4646 10.9679H16.505C11.7969 7.88746 4.51286 8.37844 0.423567 10.2953L0.363037 10.329Z" fill="#FCBD00"/>
<path d="M0.221914 13.2612C2.68412 14.6527 5.44419 15.4333 8.27047 15.5374C11.0967 15.6416 13.9068 15.0664 16.4647 13.8599C16.4647 13.8599 16.6396 13.8194 16.6732 13.0594C16.6985 12.427 16.685 11.7937 16.6329 11.1629C16.6263 11.1064 16.6002 11.0539 16.5589 11.0148C16.5165 10.982 16.4645 10.9643 16.4109 10.9643C16.3574 10.9643 16.3053 10.982 16.263 11.0148C15.3684 11.5528 7.8557 15.7228 0.342978 10.3422C0.342978 10.3422 0.16811 10.2683 0.114303 10.6315C0.0403195 11.1023 -0.100922 13.073 0.114303 13.1873L0.221914 13.2612Z" fill="#FCA800"/>
<path d="M0.921387 7.39632V8.35807L4.28429 9.99255L8.17181 10.84L13.1422 10.3556L16.7472 9.01045L17.0162 8.02851H17.0633C12.3553 4.95481 5.07121 5.4458 0.981922 7.35593L0.921387 7.39632Z" fill="#FCBD00"/>
<path d="M0.780102 10.3557C3.24212 11.7477 6.00224 12.5287 8.82862 12.6328C11.655 12.737 14.4651 12.1614 17.0229 10.9544C17.0229 10.9544 17.1911 10.9073 17.2247 10.154C17.2516 9.5217 17.2403 8.88828 17.1911 8.2573C17.1845 8.20082 17.1583 8.14846 17.1171 8.10935C17.0738 8.07866 17.0221 8.06206 16.9691 8.06206C16.9161 8.06206 16.8644 8.07866 16.8211 8.10935C15.9199 8.64742 8.41389 12.851 0.901167 7.43677C0.901167 7.43677 0.726299 7.36275 0.672492 7.73267C0.618686 8.10259 0.457267 10.1742 0.672492 10.2885L0.780102 10.3557Z" fill="#FCA800"/>
<path d="M0.497803 4.51771V5.47272L3.8607 7.10721L7.74149 7.95466L12.7119 7.47716L16.3169 6.132L16.5926 5.15662H16.6397C11.9317 2.07621 4.6409 2.57392 0.558332 4.48404L0.497803 4.51771Z" fill="#FCBD00"/>
<path d="M0.349678 7.4435C2.81096 8.83712 5.57086 9.61945 8.39735 9.72479C11.2238 9.83012 14.0343 9.25532 16.5925 8.04875C16.5925 8.04875 16.7674 8.00171 16.801 7.24169C16.8355 6.61218 16.8355 5.98121 16.801 5.3517C16.7927 5.2943 16.764 5.24182 16.7203 5.20375C16.679 5.17157 16.6281 5.15416 16.5757 5.15416C16.5233 5.15416 16.4724 5.17157 16.4311 5.20375C15.5298 5.74182 8.02382 9.91182 0.511096 4.53117C0.511096 4.53117 0.336226 4.45714 0.275693 4.82034C0.20171 5.29114 0.0671935 7.26184 0.275693 7.37617L0.349678 7.4435Z" fill="#FCA800"/>
<path d="M0.921387 1.57197V2.53371L4.28429 4.16804L8.17181 5.0155L13.1422 4.53799L16.7472 3.19283L17.0162 2.21089H17.0633C12.3553 -0.869531 5.07121 -0.378547 0.981922 1.53831L0.921387 1.57197Z" fill="#FCBD00"/>
<path d="M0.780263 4.5042C3.24228 5.89623 6.0024 6.67723 8.82878 6.78139C11.6552 6.88555 14.4653 6.30993 17.0231 5.10289C17.0231 5.10289 17.1912 5.06241 17.2249 4.3024C17.2517 3.67231 17.2405 3.0413 17.1912 2.41257C17.1863 2.35371 17.1599 2.2987 17.1172 2.25789C17.0749 2.22517 17.0228 2.20732 16.9693 2.20732C16.9157 2.20732 16.8637 2.22517 16.8213 2.25789C15.92 2.79595 8.41405 6.96595 0.901328 1.58531C0.901328 1.58531 0.726459 1.51128 0.672653 1.87447C0.598669 2.34528 0.457427 4.31597 0.672653 4.43031L0.780263 4.5042Z" fill="#FCA800"/>
<g style="mix-blend-mode:multiply" opacity="0.32">
<path d="M10.2097 11.2031C9.96754 6.56906 13.4515 2.82281 17.2718 2.82281C21.092 2.82281 16.8279 2.93715 16.8279 6.8583C16.8279 10.7794 21.0584 9.54862 17.2381 9.54862C15.7854 9.54862 17.6753 14.7208 16.3974 14.0012C15.6307 13.5707 12.8462 15.5414 11.9315 15.1984C11.9315 15.1984 10.2904 12.777 10.2097 11.2031Z" fill="#0D0D0C"/>
</g>
<path d="M12.5167 0.670524C10.2792 0.162716 7.96728 0.0715822 5.69673 0.401557C4.49954 0.556251 1.76886 1.18848 1.66125 1.58531C1.54018 2.09647 3.28889 2.70849 4.2036 3.07168C6.02577 3.78187 7.98358 4.07602 9.93398 3.9326C11.3068 3.81898 12.6613 3.54341 13.9695 3.11191L12.51 2.31158C11.6434 2.62862 10.7389 2.82998 9.81965 2.91027C9.07981 2.98425 6.26842 2.85636 5.4815 2.30485C4.05563 1.29598 6.45002 1.05394 7.82881 1.05394C9.08852 1.08371 10.3458 1.1802 11.5953 1.3431L12.5167 0.670524Z" fill="#FCA800"/>
<path d="M10.9967 11.2031C10.7478 6.56906 14.2385 2.82281 18.0588 2.82281C21.879 2.82281 25.8742 6.85837 25.8742 10.7997C25.903 12.657 25.1955 14.4501 23.9062 15.7872C22.6169 17.1244 20.8507 17.8968 18.9937 17.9357C15.1398 17.9357 11.2052 15.1377 10.9967 11.2031Z" fill="#FCBD00"/>
<path d="M18.9532 17.9357C22.7718 17.9357 25.8673 14.7408 25.8673 10.7997C25.8673 6.85851 22.7718 3.66357 18.9532 3.66357C15.1346 3.66357 12.0391 6.85851 12.0391 10.7997C12.0391 14.7408 15.1346 17.9357 18.9532 17.9357Z" fill="#FCA800"/>
<path d="M21.509 8.55994L24.233 7.3762C23.6965 6.48298 22.9455 5.73772 22.0483 5.20804C21.151 4.67837 20.1357 4.38101 19.0944 4.34285C15.4894 4.21506 12.6511 7.84703 12.6511 10.0934C12.6511 12.3399 13.9963 17.0615 18.7582 17.0615C23.52 17.0615 24.4616 13.6178 24.4616 13.6178L21.5897 12.36C21.2417 13.0268 20.683 13.5599 20.0006 13.8762C19.3181 14.1925 18.5503 14.2742 17.8165 14.1087C16.1687 13.8128 15.3683 11.452 15.4423 10.2279C15.4909 9.37457 15.8685 8.57336 16.4956 7.99262C17.1228 7.41187 17.9507 7.09691 18.8052 7.11396C19.3326 7.14982 19.8463 7.29719 20.3124 7.54648C20.7786 7.79576 21.1864 8.14122 21.509 8.55994V8.55994Z" fill="#FCBD00"/>
</svg>
