<svg width="47" height="48" viewBox="0 0 47 48" fill="none" xmlns="http://www.w3.org/2000/svg">
<path d="M37.5125 0H9.48745C4.24768 0 0 4.33805 0 9.68931V38.3107C0 43.6619 4.24768 48 9.48745 48H37.5125C42.7523 48 47 43.6619 47 38.3107V9.68931C47 4.33805 42.7523 0 37.5125 0Z" fill="#FFA300"/>
<path d="M37.9678 22.8142L38.4812 21.4064L37.0155 17.7934L35.6778 17.17L34.1291 17.6972L33.7423 17.5736C33.2387 16.9416 32.669 16.3612 32.0459 15.844L31.9249 15.4461L32.4411 13.863L31.8307 12.4969L28.293 11L26.9159 11.5258L26.1845 13.0184L25.8244 13.2108C25.0254 13.1261 24.2209 13.1247 23.4275 13.208L23.0674 13.0169L22.3374 11.5272L20.9603 11L17.4213 12.4969L16.8108 13.863L17.327 15.4432L17.2046 15.8397C16.5857 16.354 16.016 16.9358 15.5111 17.5722L15.1228 17.6958L13.5741 17.1685L12.2364 17.792L10.7708 21.4064L11.2842 22.8142L12.7456 23.5612L12.9341 23.9289C12.8511 24.7435 12.8511 25.5652 12.9313 26.3768L12.7442 26.7446L11.2856 27.4901L10.7722 28.898L12.2379 32.5109L13.5756 33.1343L15.1228 32.6086L15.5097 32.7321C16.0132 33.3642 16.5829 33.9445 17.206 34.4617L17.327 34.8568L16.8108 36.4398L17.4227 37.806L20.9603 39.3029L22.3388 38.7771L23.0688 37.286L23.4289 37.0935C24.2279 37.1782 25.0325 37.1782 25.8272 37.0949L26.1859 37.2874L26.9159 38.7771L28.293 39.3014L31.8307 37.8046L32.4411 36.4384L31.9263 34.8582L32.0473 34.4631C32.6676 33.9474 33.2359 33.3656 33.7409 32.7307L34.1277 32.6071L35.6778 33.1343L37.0155 32.5109L38.4812 28.8965L37.9678 27.4887L36.5063 26.7417L36.3178 26.3754C36.4008 25.5609 36.4008 24.7391 36.3206 23.9261L36.5077 23.5583L37.9678 22.8142ZM35.5498 22.5628L34.9829 23.6718L35.0068 23.8758C35.1053 24.7176 35.1053 25.5738 35.004 26.4199L34.9801 26.6253L35.5484 27.7358L36.9269 28.4397L37.083 28.8678L36.0083 31.5153L35.6018 31.705L34.1389 31.2079L32.9686 31.5829L32.8434 31.7452C32.33 32.4161 31.7364 33.0223 31.0838 33.5466L30.9248 33.673L30.5577 34.8682L31.0444 36.3608L30.8587 36.776L28.2663 37.8735L27.8471 37.7141L27.1579 36.3077L26.072 35.7273L25.8722 35.7517C25.0494 35.8523 24.211 35.8523 23.3797 35.7489L23.18 35.7244L22.0926 36.3048L21.4034 37.7141L20.9842 37.8735L18.3918 36.7774L18.2061 36.3623L18.6928 34.8682L18.3257 33.673L18.1668 33.5452C17.5085 33.018 16.9149 32.4132 16.4029 31.7466L16.2791 31.5843L15.1102 31.2094L13.6487 31.7078L13.2422 31.5182L12.1675 28.8707L12.3237 28.4426L13.5137 27.8335L13.7261 27.6884L14.269 26.6282L14.2451 26.4242C14.1466 25.5824 14.1466 24.7262 14.2479 23.8801L14.2718 23.6747L13.7036 22.5642L12.3251 21.8603L12.1675 21.4322L13.2422 18.7847L13.6487 18.595L15.1116 19.0921L16.2819 18.7171L16.4071 18.5548C16.9219 17.8825 17.5141 17.2777 18.1668 16.7534L18.3257 16.6255L18.6914 15.4303L18.2061 13.9406L18.3918 13.5255L20.9842 12.4279L21.4034 12.5874L22.0926 13.9938L23.1785 14.5741L23.3783 14.5497C24.2026 14.4492 25.0409 14.4492 25.8694 14.5526L26.0706 14.577L27.1579 13.9952L27.8485 12.5859L28.2677 12.4265L30.8601 13.524L31.0458 13.9392L30.5591 15.4332L30.9248 16.6284L31.0838 16.7562C31.7406 17.282 32.3342 17.8868 32.8477 18.5548L32.9714 18.7171L34.1417 19.0921L35.6032 18.595L36.0097 18.7847L37.0844 21.4322L36.9283 21.8603L35.5498 22.5628Z" fill="black" fill-opacity="0.6"/>
<path d="M24.6178 17.7849C20.6736 17.7849 17.4651 21.0559 17.4651 25.0782C17.4651 29.1005 20.6736 32.3716 24.6178 32.3716C28.5619 32.3716 31.7704 29.1005 31.7704 25.0782C31.7704 21.0559 28.5619 17.7849 24.6178 17.7849ZM24.6178 31.0442C21.391 31.0442 18.7662 28.3679 18.7662 25.0782C18.7662 21.7885 21.391 19.1122 24.6178 19.1122C27.8445 19.1122 30.4693 21.7885 30.4693 25.0782C30.4693 28.3679 27.8445 31.0442 24.6178 31.0442Z" fill="black" fill-opacity="0.6"/>
<path d="M36.9887 21.8142L37.5022 20.4064L36.0365 16.7934L34.6988 16.17L33.1501 16.6972L32.7633 16.5736C32.2597 15.9416 31.69 15.3612 31.0669 14.844L30.9459 14.4461L31.4621 12.863L30.8517 11.4969L27.314 10L25.9369 10.5258L25.2055 12.0184L24.8454 12.2108C24.0464 12.1261 23.2418 12.1247 22.4485 12.208L22.0884 12.0169L21.3584 10.5272L19.9813 10L16.4422 11.4969L15.8318 12.863L16.348 14.4432L16.2256 14.8397C15.6067 15.354 15.037 15.9358 14.5321 16.5722L14.1438 16.6958L12.5951 16.1685L11.2574 16.792L9.79175 20.4064L10.3052 21.8142L11.7666 22.5612L11.9551 22.9289C11.8721 23.7435 11.8721 24.5652 11.9523 25.3768L11.7652 25.7446L10.3066 26.4901L9.79315 27.898L11.2589 31.5109L12.5965 32.1343L14.1438 31.6086L14.5307 31.7321C15.0342 32.3642 15.6039 32.9445 16.227 33.4617L16.348 33.8568L15.8318 35.4398L16.4437 36.806L19.9813 38.3029L21.3598 37.7771L22.0898 36.286L22.4499 36.0935C23.2489 36.1782 24.0535 36.1782 24.8482 36.0949L25.2069 36.2874L25.9369 37.7771L27.314 38.3014L30.8517 36.8046L31.4621 35.4384L30.9473 33.8582L31.0683 33.4631C31.6886 32.9474 32.2569 32.3656 32.7619 31.7307L33.1487 31.6071L34.6988 32.1343L36.0365 31.5109L37.5022 27.8965L36.9887 26.4887L35.5273 25.7417L35.3388 25.3754C35.4218 24.5609 35.4218 23.7391 35.3416 22.9261L35.5287 22.5583L36.9887 21.8142ZM34.5708 21.5628L34.0039 22.6718L34.0278 22.8758C34.1263 23.7176 34.1263 24.5738 34.025 25.4199L34.0011 25.6253L34.5694 26.7358L35.9479 27.4397L36.104 27.8678L35.0293 30.5153L34.6228 30.705L33.1599 30.2079L31.9896 30.5829L31.8644 30.7452C31.351 31.4161 30.7574 32.0223 30.1047 32.5466L29.9458 32.673L29.5787 33.8682L30.0654 35.3608L29.8797 35.776L27.2873 36.8735L26.8681 36.7141L26.1789 35.3077L25.093 34.7273L24.8932 34.7517C24.0703 34.8523 23.232 34.8523 22.4007 34.7489L22.201 34.7244L21.1136 35.3048L20.4244 36.7141L20.0052 36.8735L17.4128 35.7774L17.2271 35.3623L17.7138 33.8682L17.3467 32.673L17.1878 32.5452C16.5295 32.018 15.9359 31.4132 15.4239 30.7466L15.3001 30.5843L14.1312 30.2094L12.6697 30.7078L12.2632 30.5182L11.1885 27.8707L11.3447 27.4426L12.5347 26.8335L12.7471 26.6884L13.29 25.6282L13.2661 25.4242C13.1676 24.5824 13.1676 23.7262 13.2689 22.8801L13.2928 22.6747L12.7246 21.5642L11.3461 20.8603L11.1885 20.4322L12.2632 17.7847L12.6697 17.595L14.1326 18.0921L15.3029 17.7171L15.4281 17.5548C15.9429 16.8825 16.5351 16.2777 17.1878 15.7534L17.3467 15.6255L17.7124 14.4303L17.2271 12.9406L17.4128 12.5255L20.0052 11.4279L20.4244 11.5874L21.1136 12.9938L22.1995 13.5741L22.3993 13.5497C23.2236 13.4492 24.0619 13.4492 24.8904 13.5526L25.0916 13.577L26.1789 12.9952L26.8695 11.5859L27.2887 11.4265L29.8811 12.524L30.0668 12.9392L29.5801 14.4332L29.9458 15.6284L30.1047 15.7562C30.7616 16.282 31.3552 16.8868 31.8687 17.5548L31.9924 17.7171L33.1627 18.0921L34.6242 17.595L35.0307 17.7847L36.1054 20.4322L35.9493 20.8603L34.5708 21.5628Z" fill="white"/>
<path d="M23.6385 16.7849C19.6943 16.7849 16.4858 20.0559 16.4858 24.0782C16.4858 28.1005 19.6943 31.3716 23.6385 31.3716C27.5827 31.3716 30.7912 28.1005 30.7912 24.0782C30.7912 20.0559 27.5827 16.7849 23.6385 16.7849ZM23.6385 30.0442C20.4117 30.0442 17.787 27.3679 17.787 24.0782C17.787 20.7885 20.4117 18.1122 23.6385 18.1122C26.8653 18.1122 29.49 20.7885 29.49 24.0782C29.49 27.3679 26.8653 30.0442 23.6385 30.0442Z" fill="white"/>
</svg>
