<svg id="Camada_1" data-name="Camada 1" xmlns="http://www.w3.org/2000/svg" viewBox="0 0 64.54 108.57"><defs><style>.cls-1{fill:#3f3f3f;}.cls-2{fill:#ffb600;}.cls-3{fill:#dbad1b;}.cls-4{fill:#b28a1b;}.cls-5{fill:#232323;fill-rule:evenodd;}.cls-6{fill:#1c0f01;stroke:#000;stroke-miterlimit:10;stroke-width:0.25px;}</style></defs><polygon class="cls-1" points="3.65 106.6 3.65 39.69 32.23 23.1 32.23 90.1 3.65 106.6"/><polygon class="cls-1" points="32.18 90.16 32.18 23.25 60.77 6.66 60.77 73.66 32.18 90.16"/><polygon class="cls-2" points="30.16 62.39 24.34 65.53 24.34 64.15 30.16 61.01 30.16 62.39"/><polygon class="cls-3" points="28.79 59.79 30.18 61.03 29.33 61.46 27.98 60.17 28.79 59.79"/><polygon class="cls-4" points="27.98 61.89 27.98 60.17 29.31 61.44 27.98 61.89"/><polygon class="cls-4" points="23.75 65.03 23.75 63.51 24.34 64.15 24.34 65.53 23.75 65.03"/><polyline class="cls-3" points="27.88 62.24 29.33 61.46 28.72 60.88 23.75 63.53 24.34 64.15 27.88 62.24"/><polygon class="cls-5" points="0 108.57 0 37.51 64.54 0 64.54 71.65 60.77 73.66 60.77 73.66 60.77 6.66 3.6 39.78 3.6 106.69 0 108.57"/><polygon class="cls-2" points="40.83 56.36 35.84 59.05 35.84 57.67 40.83 54.98 40.83 56.36"/><polygon class="cls-3" points="35.38 56.09 36.49 57.06 35.63 57.49 34.59 56.5 35.38 56.09"/><polygon class="cls-4" points="34.59 58.01 34.59 56.5 35.84 57.67 35.84 59.05 34.59 58.01"/><polyline class="cls-3" points="39.38 55.76 40.83 54.98 40.22 54.4 35.25 57.04 35.84 57.67 39.38 55.76"/><line class="cls-6" x1="32.23" y1="23.1" x2="32.23" y2="90.16"/></svg>