<svg id="Camada_1" data-name="Camada 1" xmlns="http://www.w3.org/2000/svg" viewBox="0 0 29.13 74.55"><defs><style>.cls-1{fill:#3f3f3f;}.cls-2{fill:#ffb600;}.cls-3{fill:#dbad1b;}.cls-4{fill:#b28a1b;}.cls-5{fill:#232323;fill-rule:evenodd;}</style></defs><polygon class="cls-1" points="26.21 73.02 26.21 18.83 3.06 5.4 3.06 59.66 26.21 73.02"/><polygon class="cls-2" points="4.7 37.15 9.41 39.69 9.41 38.57 4.7 36.03 4.7 37.15"/><polygon class="cls-3" points="5.57 35.26 4.68 36.05 5.37 36.39 6.21 35.59 5.57 35.26"/><polygon class="cls-4" points="6.23 36.8 6.23 35.58 5.39 36.38 6.23 36.8"/><polygon class="cls-4" points="9.89 39.28 9.89 38.05 9.41 38.57 9.41 39.69 9.89 39.28"/><polygon class="cls-3" points="9.89 38.06 9.41 38.57 5.37 36.39 5.86 35.92 9.89 38.06"/><polygon class="cls-5" points="29.13 74.55 29.13 16.99 0 0 0 58.03 3.06 59.66 3.06 59.66 3.06 5.4 26.21 18.83 26.21 73.02 29.13 74.55"/></svg>