<svg id="Camada_1" data-name="Camada 1" xmlns="http://www.w3.org/2000/svg" viewBox="0 0 35.96 92.04"><defs><style>.cls-1{fill:#3f3f3f;}.cls-2{fill:#ffb600;}.cls-3{fill:#dbad1b;}.cls-4{fill:#b28a1b;}.cls-5{fill:#232323;fill-rule:evenodd;}</style></defs><polygon class="cls-1" points="32.36 90.16 32.36 23.25 3.78 6.66 3.78 73.66 32.36 90.16"/><polygon class="cls-2" points="5.8 45.87 11.62 49 11.62 47.62 5.8 44.48 5.8 45.87"/><polygon class="cls-3" points="6.88 43.54 5.78 44.5 6.63 44.93 7.67 43.94 6.88 43.54"/><polygon class="cls-4" points="7.69 45.44 7.69 43.92 6.65 44.91 7.69 45.44"/><polygon class="cls-4" points="12.21 48.5 12.21 46.98 11.62 47.62 11.62 49 12.21 48.5"/><polygon class="cls-3" points="12.21 47 11.62 47.62 6.63 44.93 7.24 44.35 12.21 47"/><polygon class="cls-5" points="35.96 92.04 35.96 20.98 0 0 0 71.65 3.78 73.66 3.78 73.66 3.78 6.66 32.36 23.25 32.36 90.16 35.96 92.04"/></svg>